<?xml version="1.0" encoding="utf-8"?>
<!-- Generator: Adobe Illustrator 28.0.0, SVG Export Plug-In . SVG Version: 6.00 Build 0)  -->
<svg version="1.1" id="レイヤー_1" xmlns="http://www.w3.org/2000/svg" xmlns:xlink="http://www.w3.org/1999/xlink" x="0px"
	 y="0px" viewBox="0 0 240 250" enable-background="new 0 0 240 250" xml:space="preserve">
<g>
	<defs>
		<rect id="SVGID_1_" width="240" height="250.5"/>
	</defs>
	<clipPath id="SVGID_00000183965065048591871230000017882001816939975304_">
		<use xlink:href="#SVGID_1_"  overflow="visible"/>
	</clipPath>
	<g clip-path="url(#SVGID_00000183965065048591871230000017882001816939975304_)">
		<path fill="#0068B4" d="M184.1,56.9C173,50.5,164.9,40,161.5,27.6c-0.6-2.2-1-4.4-1.3-6.7c-7.5,1.7-14.3,5.4-19.8,11.8
			c-15.8,17.3-7.2,33.5-5.8,53.2c0,12.5-4,24-10.8,33.4c1,1.6,2.1,3.2,3.4,4.7c8.1,9.8,19.9,15.6,32.6,16.2
			c11,0.4,21.8-3.2,30.3-10.2c19-15.7,21.7-43.9,6-62.9C192.8,63,188.7,59.6,184.1,56.9"/>
		<path fill="#0068B4" d="M231.9-98.7c-3.5-4.3-8.8-6.9-14.4-7.1c-4.9-0.2-9.6,1.4-13.3,4.5c-1.7,1.4-3.2,3.1-4.3,5.1
			c-9.3,15.6-26.1,24.3-43.4,23.5c-4.8-0.2-9.6-1.1-14.3-2.8c-4.4-1.6-9-2.5-13.7-2.7c-11.4-0.5-22.4,3.3-31.2,10.5
			C80.3-53.8,75.5-29.7,85.9-10.4c6.7,12.5,7.5,27.1,2.6,40.1c3.6,0.7,7.1,1.7,10.5,3.2c9.9,4.4,20.7,3.7,30-0.4
			c8.5-3.8,15.7-10.6,19.9-18.9c3.9-7.7,1.9-25.1,6.4-34.1c3.9-7.7,11-13.5,19.7-15.4c6.9-17.4,23.4-29.7,42.8-30.5
			c4.3-0.2,8.3-1.7,11.6-4.5C237.6-77.9,238.8-90.3,231.9-98.7"/>
		<path fill="#CFD4D7" d="M117.1,6.2C113.2,2.7,93.3-6.2,102.4-28c3.1-7.3,12.2-13.3,14.9-20.7c3.4-9.5,1.8-18.6-5.3-26.2
			c-0.7-0.7-12.7-8-14.2-8.3c-3.1-0.5-6.2-1.6-9.4-1.7c-9.9-0.4-18.9,2.2-24.3,11.2c-5.2,8.7-4.9,17.6,1.2,26
			c2.6,3.6,5.3,7.3,7.5,11.1c2.5,4.4,5,8.9,6.4,13.6c2.2,7.3-2.2,14.3-9.5,16.6c-5.1,1.6-10,0.8-14.7-1.6
			c-7.8-3.9-11.3-10.8-13.5-18.7c-1.5-5.6-2.9-11.2-5.1-16.5C31.4-55.5,21.4-59.8,9-55c-4.8,1.9-9.4,4.5-14,6.9
			c-9.6,4.9-14.7,3-18.4-7c-0.5-1.3-0.8-2.8-1.1-4.2c-2-9.6,0.6-18.3,4.7-26.8c2-4.3-110.2,30-42.3,28.4c8.6,6,11.9,13.8,10,24
			c-0.6,3.4-2.7,13.8-3,17.2c0.5,16.6,27.6,15.9,48,17C11.2,1.4,27.6,7,8.6,11.3c-10.8,2.4-38.3-0.7-39.7,8.8
			c-0.7,4.8,6.5,11.2,15,14.6c4.1,1.6,8.9,3.3,14.4,5.1c9-5.1,13.5-10.5,20.3-10.5c10.9,0,11.3,9.5,3.9,16.9c14,2.9,29.3,4.7,44,3.7
			c15.2-1.1,60.2-1.9,58.8-28.3C125,16.7,123,11.6,117.1,6.2 M-33.3-66.1c0.5-1,1.7-2.3,2.7-2.3c0.9,0,2.3,1.1,2.8,2.1
			c0.9,1.9,1.4,4.1,2,6.1c1.7,5.3,3.4,10.6,5.3,16.3C-30.6-44.9-37.7-57.5-33.3-66.1"/>
		<path fill="#E30012" d="M209-10.7c-1.1-15.8-13.7-25.7-28.1-25.9c-11.3,0-21,6.6-25.7,16c-4.5,9-2.5,26.4-6.4,34.1
			c-4.2,8.3-11.4,15.1-19.9,18.9c-9.3,4.2-20,4.9-30,0.4c-24.3-10.2-54-1.2-68.7,20.7C17,73.8-7.6,64.5-30.2,58.1
			c-0.5-0.1-1-0.3-1.5-0.5c-5.9,6.8-7.3,15.9,4.4,21.9c10.9,5.6,10.4,13.3,8.5,20.6c16.8-6.5,37.9-0.5,47.5,15.8
			c10.6,17.1,28.8,27.4,48.8,27.4c31.6,0,57.3-25.7,57.3-57.3c-1.5-19.7-10.1-35.9,5.8-53.2c6.5-7.6,14.8-11.4,24-12.6
			c10-1.3,18.2,3,30.8-3.2C205.8,11.9,209.7-1.1,209-10.7"/>
		<path fill="#E30012" d="M-49.9,136.9c27.7,4.3,46.8,30.2,42.5,57.9c-4.2,27.7-30.2,46.8-57.9,42.5c-27.7-4.2-46.8-30.2-42.5-57.9
			C-103.6,151.6-77.6,132.6-49.9,136.9"/>
	</g>
</g>
</svg>
