<?xml version="1.0" encoding="utf-8"?>
<!-- Generator: Adobe Illustrator 28.0.0, SVG Export Plug-In . SVG Version: 6.00 Build 0)  -->
<svg version="1.1" id="レイヤー_1" xmlns="http://www.w3.org/2000/svg" xmlns:xlink="http://www.w3.org/1999/xlink" x="0px"
	 y="0px" viewBox="0 0 240 250" enable-background="new 0 0 240 250" xml:space="preserve">
<g>
	<defs>
		<rect id="SVGID_1_" width="240" height="250.5"/>
	</defs>
	<clipPath id="SVGID_00000038408891278002037440000006578870417851397256_">
		<use xlink:href="#SVGID_1_"  overflow="visible"/>
	</clipPath>
	<g clip-path="url(#SVGID_00000038408891278002037440000006578870417851397256_)">
		<path fill="#0068B4" d="M29.7,159.8c-10.7-11.2-15.3-26.9-12.5-42.1c0.7-3.9,1.9-7.6,3.5-11.1c-8.4-7.1-19.8-10.1-30.6-8.7
			c7.9,18.4,3.2,40.5-13,53.8c-19.6,16.2-48.8,13.4-65-6.2c-7.8-9.5-11.2-21.2-10.4-32.7c0-1.9,0.1-3.4,0.2-3.8
			c3-23.6-15.4-44.2-30.7-48.5c-9.1,8.3-21.3,13.1-34.5,12.6c-0.3,0-0.7,0-1-0.1c-0.5,0-0.9-0.1-1.4-0.1c-17.5-0.7-34.6,5-48.2,16.2
			c-14.6,12.1-23.7,29.2-25.5,48.1c-1.8,18.9,3.9,37.4,15.9,52c12.8,15.5,31.8,24.9,51.9,25.7c17.5,0.7,34.6-5,48.2-16.2
			c4.3-3.5,8.1-7.5,11.4-11.9c9.6-12.6,24.7-19.6,40.4-19c1.4,0.1,2.9,0.2,4.3,0.4c17.1,2.2,31.8,13.5,38.4,29.5
			c1.4,3.3,3.2,6.4,5.5,9.2c6.4,7.8,15.9,12.5,26,12.9c8.8,0.4,17.3-2.5,24.1-8.1c15.1-12.5,17.3-34.9,4.8-50.1
			C31,161.2,30.5,160.6,29.7,159.8"/>
		<path fill="#CFD4D7" d="M83,228.6c-2.4,0-4.1-0.7-5.3-2c-3.4-4-2.1-7.3,5.9-14.7c1.1-1,2.1-2,3.1-3c1.2-1.2,2.4-2.3,3.5-3.2
			c1.6-1.3,2.1-3.6,1.1-5.5c-0.8-1.5-2.3-2.3-3.9-2.3c-0.4,0-0.8,0.1-1.3,0.2c-2.6,0.8-5.4,1.2-8.3,1.2l-0.2,0
			c-2.3,0-4.5-0.2-6.3-0.5c-0.3,0-0.5-0.1-0.8-0.1c-1.2,0-2.4,0.5-3.2,1.4c-1,1.1-1.4,2.7-1,4.1c1.5,5.7,0,13.5-0.1,13.5
			c-0.7,3.5-3.2,5.3-7.4,5.3c-1.5,0-3.3-0.2-5.5-0.7c-2.8-0.6-4.9-2.2-6-4.6c-1-2.2-1.2-4.9-0.6-8c0.6-2.9,2.9-5.1,4.6-6.4
			c1.4-1,2.1-2.8,1.7-4.5c-0.4-1.7-1.7-3-3.5-3.4c-0.7-0.1-1.9-0.6-2.4-2.1c-0.7-2.1-0.2-3.8,1.4-5.1c0.7-0.6,2-1,3.2-1.1
			c1.2-0.1,2.4-0.6,3.1-1.6c0.8-0.9,1.1-2.2,1-3.4c-0.2-2,0.3-4,1.7-5.9c3.5-4.8,11.9-8.3,20-8.3l0.2,0c6,0,11.6,1.8,15.7,5
			c3.7,2.9,5.8,6.7,5.7,10.7c0,4.7-2.8,8.1-5.2,10.1c-1.5,1.3-2,3.4-1.2,5.2c0.7,1.6,2.3,2.6,4,2.6c0.2,0,0.5,0,0.7-0.1
			c0.4-0.1,0.7-0.1,1.1-0.1c1.5,0,2.8,0.6,3.9,1.7c3.8,3.9,1.7,12-4.9,18.5C93.7,225.9,87.8,228.6,83,228.6 M57.7,191.3
			c-1.4,0-2.7,0.6-3.5,1.7c0,0-0.1,0.1-0.1,0.2c-1.1,1.5-1.1,3.5,0,5.1c0.8,1.2,2.2,1.9,3.6,1.9c0.4,0,0.7-0.1,1.1-0.2
			c1.4-0.4,2.6-1.5,3.1-2.9c0.5-1.4,0.2-3-0.8-4.2l0,0C60.3,191.9,59,191.3,57.7,191.3L57.7,191.3z"/>
		<path fill="#CFD4D7" d="M13.8,136.6c-0.8,2.8-2.5,5.3-3.8,7.9c-4.1,8.2-1,14.7,4.4,19.2c3.3,2.7,22.1,14.8,12.3,19.6
			c-9.6,4.7-32.3,36.3,1,39c1.9,0.2,4.8,0.4,8,0.6c6.5,0.4,20.6,1.1,20.7,5c0.1,5.3-8.7,9.7-28.7,10.6
			c-67.5,3.2-56.2-12.4-34.8-18.3c40.1-11.1-20.5-54.7-21-55.4c-0.1-0.2-0.2-0.4-0.3-0.6c-0.6-1.4-0.7-3.3,2.6-5
			c6.5-3.3,1.7-4.1-5.1-4.5c-7.6-0.4-17.2-2.8-17.4-8.9c0.1-1.3,0.5-2.5,0.7-3.8c0.7-3.8-1.3-6.6-3.7-8.9
			c-35.9-32.6,22.6-46.4,15.6-10.5c-0.7,3.4-2.5,6.4-1.7,9.9c0.1,0.5,0.2,1,0.4,1.5c1.4,3.7,3.3,4.4,6.8,2.6
			c1.7-0.9,3.4-1.9,5.2-2.6c4.6-1.8,8.3-0.2,10.1,4.4c0.8,2,1.3,4.1,1.9,6.1c0.8,2.9,2.1,5.5,5,6.9c1.7,0.9,3.5,1.2,5.4,0.6
			c2.7-0.9,4.3-3.5,3.5-6.2c-0.5-1.8-1.5-3.4-2.4-5c-0.8-1.4-1.8-2.8-2.8-4.1c-2.2-3.1-2.4-6.4-0.4-9.6c2-3.3,5.3-4,9-4.1
			C12.9,122.9,15.1,132.1,13.8,136.6 M-36,138.3c-0.7-2.1-1.3-4.1-1.9-6c-0.2-0.8-0.4-1.6-0.7-2.3c-0.2-0.4-0.7-0.8-1-0.8
			c-0.4,0-0.8,0.5-1,0.9C-42.4,133.2-39.7,137.9-36,138.3"/>
		<path fill="#E30012" d="M-49.9,136.9c27.7,4.3,46.8,30.2,42.5,57.9c-4.2,27.7-30.2,46.8-57.9,42.5c-27.7-4.2-46.8-30.2-42.5-57.9
			C-103.6,151.6-77.6,132.6-49.9,136.9"/>
	</g>
</g>
</svg>
