<?xml version="1.0" encoding="utf-8"?>
<!-- Generator: Adobe Illustrator 28.0.0, SVG Export Plug-In . SVG Version: 6.00 Build 0)  -->
<svg version="1.1" id="レイヤー_1" xmlns="http://www.w3.org/2000/svg" xmlns:xlink="http://www.w3.org/1999/xlink" x="0px"
	 y="0px" viewBox="0 0 254 114" enable-background="new 0 0 254 114" xml:space="preserve">
<g>
	<g>
		<path fill="#FFFFFF" d="M37.4,28.5H27v-1.9l4-4.1c0.8-0.8,1.4-1.5,1.9-2s0.9-1.1,1.1-1.6s0.4-1.1,0.4-1.7c0-0.7-0.2-1.3-0.6-1.7
			c-0.4-0.4-1-0.6-1.7-0.6s-1.3,0.1-1.9,0.4S29,16,28.4,16.5L27,14.9c0.4-0.4,0.9-0.7,1.4-1s1-0.5,1.6-0.7s1.3-0.3,2.1-0.3
			c1,0,1.8,0.2,2.5,0.5s1.3,0.8,1.6,1.5c0.4,0.6,0.6,1.3,0.6,2.2c0,0.8-0.2,1.6-0.5,2.3s-0.8,1.4-1.4,2.1s-1.3,1.4-2.2,2.2L30,26.3
			v0.1h7.3v2.1H37.4z"/>
		<path fill="#FFFFFF" d="M51.5,20.8c0,1.2-0.1,2.4-0.3,3.3s-0.5,1.8-0.9,2.5s-1,1.2-1.6,1.6c-0.7,0.4-1.5,0.5-2.4,0.5
			c-1.2,0-2.2-0.3-2.9-0.9S42,26.2,41.6,25S41,22.4,41,20.7s0.2-3.1,0.5-4.3s0.9-2.1,1.7-2.7c0.8-0.6,1.8-0.9,3-0.9s2.2,0.3,3,0.9
			c0.8,0.6,1.4,1.5,1.7,2.7C51.3,17.7,51.5,19.1,51.5,20.8z M43.5,20.8c0,1.3,0.1,2.4,0.3,3.3s0.5,1.5,0.9,2s0.9,0.6,1.6,0.6
			s1.2-0.2,1.6-0.6c0.4-0.4,0.7-1.1,0.9-2s0.3-2,0.3-3.3s-0.1-2.4-0.3-3.2c-0.2-0.9-0.5-1.5-0.9-2c-0.4-0.4-0.9-0.7-1.6-0.7
			c-0.7,0-1.2,0.2-1.6,0.7c-0.4,0.4-0.7,1.1-0.9,2C43.6,18.4,43.5,19.5,43.5,20.8z"/>
		<path fill="#FFFFFF" d="M65.6,28.5H55.1v-1.9l4-4.1c0.8-0.8,1.4-1.5,1.9-2s0.9-1.1,1.1-1.6s0.4-1.1,0.4-1.7c0-0.7-0.2-1.3-0.6-1.7
			c-0.4-0.4-1-0.6-1.7-0.6s-1.3,0.1-1.9,0.4s-1.2,0.6-1.8,1.1l-1.4-1.6c0.4-0.4,0.9-0.7,1.4-1s1-0.5,1.6-0.7s1.3-0.3,2.1-0.3
			c1,0,1.8,0.2,2.5,0.5c0.7,0.3,1.3,0.8,1.6,1.5c0.4,0.6,0.6,1.3,0.6,2.2c0,0.8-0.2,1.6-0.5,2.3s-0.8,1.4-1.4,2.1s-1.3,1.4-2.2,2.2
			l-2.7,2.6v0.1h7.3v2.2H65.6z"/>
		<path fill="#FFFFFF" d="M74.5,18.9c1,0,1.9,0.2,2.6,0.5c0.8,0.4,1.3,0.9,1.8,1.6s0.6,1.5,0.6,2.5c0,1.1-0.2,2-0.7,2.8
			s-1.1,1.4-2,1.8s-2,0.6-3.2,0.6c-0.8,0-1.6-0.1-2.3-0.2s-1.3-0.4-1.8-0.6v-2.2c0.5,0.3,1.2,0.5,1.9,0.7c0.7,0.2,1.4,0.3,2.1,0.3
			s1.3-0.1,1.8-0.3s0.9-0.5,1.2-1s0.4-1,0.4-1.7c0-0.9-0.3-1.6-0.8-2.1c-0.6-0.5-1.5-0.7-2.7-0.7c-0.4,0-0.9,0-1.3,0.1
			c-0.5,0.1-0.9,0.2-1.2,0.2l-1.1-0.6l0.6-7.5h8v2.2h-5.8l-0.3,3.8c0.3-0.1,0.6-0.1,0.9-0.2S73.9,18.9,74.5,18.9z"/>
		<path fill="#FFFFFF" d="M83.7,27.2c0-0.6,0.1-1,0.4-1.2s0.7-0.4,1.1-0.4s0.8,0.1,1.1,0.4c0.3,0.2,0.5,0.6,0.5,1.2s-0.2,1-0.5,1.2
			s-0.7,0.4-1.1,0.4s-0.8-0.1-1.1-0.4S83.7,27.8,83.7,27.2z"/>
		<path fill="#FFFFFF" d="M101.4,20.8c0,1.2-0.1,2.4-0.3,3.3s-0.5,1.8-0.9,2.5s-1,1.2-1.6,1.6c-0.7,0.4-1.5,0.5-2.4,0.5
			c-1.2,0-2.2-0.3-2.9-0.9s-1.3-1.5-1.7-2.7c-0.4-1.2-0.6-2.6-0.6-4.3s0.2-3.1,0.5-4.3s0.9-2.1,1.7-2.7c0.8-0.6,1.8-0.9,3-0.9
			s2.2,0.3,3,0.9c0.8,0.6,1.4,1.5,1.7,2.7C101.2,17.7,101.4,19.1,101.4,20.8z M93.4,20.8c0,1.3,0.1,2.4,0.3,3.3
			c0.2,0.9,0.5,1.5,0.9,2s0.9,0.6,1.6,0.6s1.2-0.2,1.6-0.6s0.7-1.1,0.9-2c0.2-0.9,0.3-2,0.3-3.3s-0.1-2.4-0.3-3.2
			c-0.2-0.9-0.5-1.5-0.9-2c-0.4-0.4-0.9-0.7-1.6-0.7s-1.2,0.2-1.6,0.7c-0.4,0.4-0.7,1.1-0.9,2C93.5,18.4,93.4,19.5,93.4,20.8z"/>
		<path fill="#FFFFFF" d="M116,25.1h-2.1v3.4h-2.4v-3.4h-7v-1.9l7-10.2h2.4v10h2.1V25.1z M111.5,23.1v-3.8c0-0.3,0-0.6,0-1
			c0-0.3,0-0.6,0-0.9s0-0.6,0-0.8s0-0.5,0-0.6h-0.1c-0.1,0.3-0.3,0.6-0.4,0.9c-0.2,0.3-0.3,0.6-0.5,0.8l-3.8,5.5h4.8V23.1z"/>
		<path fill="#FFFFFF" d="M119.5,27.2c0-0.6,0.1-1,0.4-1.2s0.7-0.4,1.1-0.4s0.8,0.1,1.1,0.4c0.3,0.2,0.5,0.6,0.5,1.2s-0.2,1-0.5,1.2
			s-0.7,0.4-1.1,0.4s-0.8-0.1-1.1-0.4S119.5,27.8,119.5,27.2z"/>
		<path fill="#FFFFFF" d="M134,28.5h-2.5v-9.9c0-0.3,0-0.7,0-1s0-0.7,0-1s0-0.6,0-0.9c-0.1,0.2-0.3,0.3-0.5,0.5s-0.4,0.4-0.7,0.6
			l-1.8,1.4l-1.2-1.6l4.6-3.6h2.1L134,28.5L134,28.5z"/>
		<path fill="#FFFFFF" d="M150.7,16.6c0,0.7-0.1,1.3-0.4,1.8c-0.3,0.5-0.7,0.9-1.2,1.3c-0.5,0.3-1.1,0.6-1.7,0.7v0.1
			c1.2,0.2,2.2,0.5,2.8,1.2c0.6,0.6,0.9,1.4,0.9,2.5c0,0.9-0.2,1.7-0.6,2.4c-0.4,0.7-1.1,1.2-2,1.7c-0.9,0.4-2,0.6-3.4,0.6
			c-0.8,0-1.6-0.1-2.3-0.2s-1.4-0.3-2-0.6v-2.2c0.7,0.3,1.4,0.6,2.1,0.7s1.4,0.3,2.1,0.3c1.3,0,2.2-0.2,2.8-0.7
			c0.5-0.5,0.8-1.1,0.8-2c0-0.5-0.1-1-0.4-1.3s-0.7-0.6-1.3-0.8c-0.6-0.2-1.4-0.3-2.3-0.3h-1.4v-2h1.4c0.9,0,1.6-0.1,2.2-0.3
			c0.5-0.2,0.9-0.5,1.2-0.9c0.2-0.4,0.4-0.8,0.4-1.3c0-0.7-0.2-1.2-0.6-1.5c-0.4-0.4-1.1-0.6-1.9-0.6c-0.5,0-1,0.1-1.4,0.2
			c-0.4,0.1-0.8,0.3-1.2,0.5s-0.7,0.4-1,0.6l-1.2-1.7c0.6-0.4,1.3-0.8,2.1-1.1s1.8-0.5,2.8-0.5c1.6,0,2.8,0.3,3.7,1
			C150.2,14.6,150.7,15.5,150.7,16.6z"/>
		<path fill="#FFFFFF" d="M84.1,79.1H73.6v-1.9l4-4.1c0.8-0.8,1.4-1.5,1.9-2s0.9-1.1,1.1-1.6s0.4-1.1,0.4-1.7c0-0.7-0.2-1.3-0.6-1.7
			c-0.4-0.4-1-0.6-1.7-0.6s-1.3,0.1-1.9,0.4S75.6,66.5,75,67l-1.4-1.6c0.4-0.4,0.9-0.7,1.4-1s1-0.5,1.6-0.7s1.3-0.3,2.1-0.3
			c1,0,1.8,0.2,2.5,0.5c0.7,0.3,1.3,0.8,1.6,1.5c0.4,0.6,0.6,1.3,0.6,2.2c0,0.8-0.2,1.6-0.5,2.3s-0.8,1.4-1.4,2.1s-1.3,1.4-2.2,2.2
			l-2.7,2.6V77h7.3v2.1H84.1z"/>
		<path fill="#FFFFFF" d="M98.2,71.4c0,1.2-0.1,2.4-0.3,3.3s-0.5,1.8-0.9,2.5s-1,1.2-1.6,1.6c-0.7,0.4-1.5,0.5-2.4,0.5
			c-1.2,0-2.2-0.3-2.9-0.9s-1.3-1.5-1.7-2.7c-0.4-1.2-0.6-2.6-0.6-4.3s0.2-3.1,0.5-4.3c0.3-1.2,0.9-2.1,1.7-2.7
			c0.8-0.6,1.8-0.9,3-0.9s2.2,0.3,3,0.9c0.8,0.6,1.4,1.5,1.7,2.7C98,68.3,98.2,69.8,98.2,71.4z M90.2,71.4c0,1.3,0.1,2.4,0.3,3.3
			c0.2,0.9,0.5,1.5,0.9,2s0.9,0.6,1.6,0.6s1.2-0.2,1.6-0.6s0.7-1.1,0.9-2c0.2-0.9,0.3-2,0.3-3.3s-0.1-2.4-0.3-3.2
			c-0.2-0.9-0.5-1.5-0.9-2s-0.9-0.7-1.6-0.7s-1.2,0.2-1.6,0.7c-0.4,0.4-0.7,1.1-0.9,2C90.3,69,90.2,70.1,90.2,71.4z"/>
		<path fill="#FFFFFF" d="M112.2,79.1h-10.4v-1.9l4-4.1c0.8-0.8,1.4-1.5,1.9-2s0.9-1.1,1.1-1.6s0.4-1.1,0.4-1.7
			c0-0.7-0.2-1.3-0.6-1.7c-0.4-0.4-1-0.6-1.7-0.6s-1.3,0.1-1.9,0.4s-1.2,0.6-1.8,1.1l-1.4-1.6c0.4-0.4,0.9-0.7,1.4-1s1-0.5,1.6-0.7
			s1.3-0.3,2.1-0.3c1,0,1.8,0.2,2.5,0.5c0.7,0.3,1.3,0.8,1.6,1.5c0.4,0.6,0.6,1.3,0.6,2.2c0,0.8-0.2,1.6-0.5,2.3s-0.8,1.4-1.4,2.1
			s-1.3,1.4-2.2,2.2l-2.7,2.6V77h7.3L112.2,79.1L112.2,79.1z"/>
		<path fill="#FFFFFF" d="M121.1,69.5c1,0,1.9,0.2,2.6,0.5c0.8,0.4,1.3,0.9,1.8,1.6s0.6,1.5,0.6,2.5c0,1.1-0.2,2-0.7,2.8
			s-1.1,1.4-2,1.8s-2,0.6-3.2,0.6c-0.8,0-1.6-0.1-2.3-0.2s-1.3-0.4-1.8-0.6v-2.2c0.5,0.3,1.2,0.5,1.9,0.7c0.7,0.2,1.4,0.3,2.1,0.3
			s1.3-0.1,1.8-0.3s0.9-0.5,1.2-1s0.4-1,0.4-1.7c0-0.9-0.3-1.6-0.8-2.1c-0.6-0.5-1.5-0.7-2.7-0.7c-0.4,0-0.9,0-1.3,0.1
			c-0.5,0.1-0.9,0.2-1.2,0.2l-1.1-0.6l0.6-7.5h8v2.2h-5.8l-0.3,3.8c0.3-0.1,0.6-0.1,0.9-0.2S120.6,69.5,121.1,69.5z"/>
		<path fill="#FFFFFF" d="M130.4,77.8c0-0.6,0.1-1,0.4-1.2s0.7-0.4,1.1-0.4c0.4,0,0.8,0.1,1.1,0.4c0.3,0.2,0.5,0.6,0.5,1.2
			s-0.2,1-0.5,1.2s-0.7,0.4-1.1,0.4c-0.4,0-0.8-0.1-1.1-0.4S130.4,78.4,130.4,77.8z"/>
		<path fill="#FFFFFF" d="M144.9,79.1h-2.5v-9.9c0-0.3,0-0.7,0-1s0-0.7,0-1s0-0.6,0-0.9c-0.1,0.2-0.3,0.3-0.5,0.5s-0.4,0.4-0.7,0.6
			l-1.8,1.4l-1.2-1.6l4.6-3.6h2.1L144.9,79.1L144.9,79.1z"/>
		<path fill="#FFFFFF" d="M162.1,71.4c0,1.2-0.1,2.4-0.3,3.3s-0.5,1.8-0.9,2.5s-1,1.2-1.6,1.6c-0.7,0.4-1.5,0.5-2.4,0.5
			c-1.2,0-2.2-0.3-2.9-0.9s-1.3-1.5-1.7-2.7s-0.6-2.6-0.6-4.3s0.2-3.1,0.5-4.3c0.3-1.2,0.9-2.1,1.7-2.7s1.8-0.9,3-0.9s2.2,0.3,3,0.9
			c0.8,0.6,1.4,1.5,1.7,2.7C161.9,68.3,162.1,69.8,162.1,71.4z M154.1,71.4c0,1.3,0.1,2.4,0.3,3.3s0.5,1.5,0.9,2s0.9,0.6,1.6,0.6
			s1.2-0.2,1.6-0.6c0.4-0.4,0.7-1.1,0.9-2s0.3-2,0.3-3.3s-0.1-2.4-0.3-3.2c-0.2-0.9-0.5-1.5-0.9-2s-0.9-0.7-1.6-0.7
			c-0.7,0-1.2,0.2-1.6,0.7c-0.4,0.4-0.7,1.1-0.9,2C154.2,69,154.1,70.1,154.1,71.4z"/>
		<path fill="#FFFFFF" d="M166.2,77.8c0-0.6,0.1-1,0.4-1.2s0.7-0.4,1.1-0.4c0.4,0,0.8,0.1,1.1,0.4c0.3,0.2,0.5,0.6,0.5,1.2
			s-0.2,1-0.5,1.2s-0.7,0.4-1.1,0.4c-0.4,0-0.8-0.1-1.1-0.4S166.2,78.4,166.2,77.8z"/>
		<path fill="#FFFFFF" d="M180.7,79.1h-2.5v-9.9c0-0.3,0-0.7,0-1s0-0.7,0-1s0-0.6,0-0.9c-0.1,0.2-0.3,0.3-0.5,0.5s-0.4,0.4-0.7,0.6
			l-1.8,1.4l-1.2-1.6l4.6-3.6h2.1L180.7,79.1L180.7,79.1z"/>
		<path fill="#FFFFFF" d="M197.3,67.2c0,0.7-0.1,1.3-0.4,1.8c-0.3,0.5-0.7,0.9-1.2,1.3c-0.5,0.3-1.1,0.6-1.7,0.7v0.1
			c1.2,0.2,2.2,0.5,2.8,1.2c0.6,0.6,0.9,1.4,0.9,2.5c0,0.9-0.2,1.7-0.6,2.4c-0.4,0.7-1.1,1.2-2,1.7c-0.9,0.4-2,0.6-3.4,0.6
			c-0.8,0-1.6-0.1-2.3-0.2s-1.4-0.3-2-0.6v-2.2c0.7,0.3,1.4,0.6,2.1,0.7s1.4,0.3,2.1,0.3c1.3,0,2.2-0.2,2.8-0.7
			c0.5-0.5,0.8-1.1,0.8-2c0-0.5-0.1-1-0.4-1.3s-0.7-0.6-1.3-0.8c-0.6-0.2-1.4-0.3-2.3-0.3h-1.4v-2h1.4c0.9,0,1.6-0.1,2.2-0.3
			c0.5-0.2,0.9-0.5,1.2-0.9c0.2-0.4,0.4-0.8,0.4-1.3c0-0.7-0.2-1.2-0.6-1.5c-0.4-0.4-1.1-0.6-1.9-0.6c-0.5,0-1,0.1-1.4,0.2
			s-0.8,0.3-1.2,0.5s-0.7,0.4-1,0.6l-1.2-1.7c0.6-0.4,1.3-0.8,2.1-1.1s1.8-0.5,2.8-0.5c1.6,0,2.8,0.3,3.7,1
			C196.9,65.2,197.3,66.1,197.3,67.2z"/>
	</g>
	<path fill="none" stroke="#FFFFFF" stroke-width="0.9" stroke-miterlimit="10" d="M160.8,41.7H22.2C10.8,41.7,1.5,32.5,1.5,21l0,0
		c0-11.4,9.3-20.7,20.7-20.7h138.6c11.4,0,20.7,9.3,20.7,20.7l0,0C181.5,32.5,172.2,41.7,160.8,41.7z"/>
	<g>
		<path fill="#FFFFFF" d="M66.2,108.5c0,0.8-0.1,1.5-0.3,2.1s-0.5,1.2-0.9,1.6s-0.9,0.8-1.5,1s-1.3,0.4-2.1,0.4s-1.5-0.1-2.1-0.4
			s-1.1-0.6-1.5-1.1s-0.7-1-0.9-1.6s-0.3-1.3-0.3-2.1c0-1,0.2-1.9,0.5-2.7s0.9-1.4,1.6-1.8s1.6-0.6,2.6-0.6s1.9,0.2,2.6,0.6
			s1.2,1,1.5,1.8S66.2,107.4,66.2,108.5z M58.6,108.5c0,0.8,0.1,1.4,0.3,2s0.5,1,1,1.3s1,0.5,1.7,0.5s1.2-0.2,1.7-0.5
			c0.4-0.3,0.8-0.7,1-1.3s0.3-1.2,0.3-2c0-1.2-0.2-2.1-0.7-2.8s-1.2-1-2.2-1c-0.7,0-1.2,0.2-1.7,0.5s-0.8,0.7-1,1.3
			S58.6,107.7,58.6,108.5z"/>
		<path fill="#FFFFFF" d="M72.4,103.5c1.3,0,2.2,0.3,2.8,0.8s0.9,1.3,0.9,2.2c0,0.4-0.1,0.8-0.2,1.2s-0.4,0.7-0.7,1
			s-0.7,0.5-1.2,0.7s-1.1,0.3-1.8,0.3h-1.1v3.7h-1.6v-10h2.9V103.5z M72.3,104.9h-1.2v3.5H72c0.5,0,1-0.1,1.3-0.2s0.6-0.3,0.8-0.6
			s0.3-0.6,0.3-1c0-0.6-0.2-1-0.5-1.3S73,104.9,72.3,104.9z"/>
		<path fill="#FFFFFF" d="M84.8,113.5h-5.7v-10h5.7v1.4h-4v2.7h3.8v1.4h-3.8v3.1h4V113.5z"/>
		<path fill="#FFFFFF" d="M96.5,113.5h-2l-4.9-8h-0.1c0,0.3,0,0.6,0.1,0.9s0,0.6,0,0.9s0,0.6,0,1v5.2h-1.5v-10h2l4.9,7.9l0,0
			c0-0.2,0-0.5,0-0.8s0-0.6,0-0.9s0-0.6,0-0.9v-5.3h1.5V113.5z"/>
		<path fill="#FFFFFF" d="M99.8,106.8c0-0.4,0.1-0.6,0.3-0.8s0.4-0.2,0.7-0.2s0.5,0.1,0.7,0.2s0.3,0.4,0.3,0.8s-0.1,0.6-0.3,0.8
			s-0.4,0.2-0.7,0.2s-0.5-0.1-0.7-0.2S99.8,107.2,99.8,106.8z M99.8,112.6c0-0.4,0.1-0.6,0.3-0.8s0.4-0.2,0.7-0.2s0.5,0.1,0.7,0.2
			s0.3,0.4,0.3,0.8s-0.1,0.6-0.3,0.8s-0.4,0.2-0.7,0.2s-0.5-0.1-0.7-0.2S99.8,113,99.8,112.6z"/>
		<path fill="#FFFFFF" d="M116,107.8c0,0.6,0,1.2-0.1,1.7s-0.2,1.1-0.4,1.6s-0.5,0.9-0.9,1.3s-0.8,0.7-1.4,0.9s-1.2,0.3-2,0.3
			c-0.2,0-0.4,0-0.7,0s-0.5,0-0.6-0.1v-1.3c0.2,0.1,0.4,0.1,0.6,0.1s0.4,0,0.6,0c0.8,0,1.5-0.2,2-0.5s0.8-0.7,1-1.3s0.3-1.2,0.3-1.9
			h-0.1c-0.1,0.2-0.3,0.4-0.5,0.6s-0.4,0.3-0.7,0.4s-0.7,0.2-1.1,0.2c-0.6,0-1.1-0.1-1.5-0.4s-0.8-0.6-1-1.1s-0.4-1-0.4-1.7
			s0.1-1.3,0.4-1.8s0.6-0.9,1.1-1.2s1.1-0.4,1.7-0.4c0.5,0,1,0.1,1.4,0.3s0.8,0.5,1.1,0.8s0.6,0.8,0.7,1.4S116,107,116,107.8z
			 M112.5,104.7c-0.5,0-0.9,0.2-1.2,0.5s-0.5,0.9-0.5,1.6c0,0.6,0.1,1,0.4,1.4s0.7,0.5,1.3,0.5c0.4,0,0.7-0.1,1-0.2s0.5-0.4,0.7-0.6
			s0.2-0.5,0.2-0.8s0-0.5-0.1-0.8s-0.2-0.5-0.3-0.7s-0.3-0.4-0.6-0.5S112.8,104.7,112.5,104.7z"/>
		<path fill="#FFFFFF" d="M130,113.5l-1-2.8h-3.8l-1,2.8h-1.7l3.7-10h1.8l3.7,10H130z M128.6,109.3l-1-2.7c0-0.1-0.1-0.3-0.2-0.5
			s-0.1-0.4-0.2-0.7s-0.1-0.4-0.2-0.6c0,0.2-0.1,0.4-0.2,0.6s-0.1,0.4-0.2,0.6s-0.1,0.4-0.1,0.5l-1,2.7L128.6,109.3L128.6,109.3z"/>
		<path fill="#FFFFFF" d="M138.5,113.5l-2.9-8.3h-0.1c0,0.2,0,0.4,0,0.8s0,0.7,0,1s0,0.7,0,1.1v5.5H134v-10h2.3l2.8,8l0,0l2.9-8h2.3
			v10h-1.6V108c0-0.3,0-0.6,0-1s0-0.7,0-1s0-0.6,0-0.8h-0.1l-3,8.3H138.5z"/>
		<path fill="#FFFFFF" d="M155.6,112.3c0.2,0,0.4,0,0.6-0.1s0.4-0.1,0.6-0.1v1.2c-0.2,0.1-0.4,0.1-0.7,0.2s-0.6,0.1-0.9,0.1
			c-0.4,0-0.8-0.1-1.2-0.2s-0.6-0.4-0.8-0.7s-0.3-0.8-0.3-1.5v-4.1h-1v-0.7l1.1-0.6l0.5-1.6h1v1.7h2.2v1.2h-2.2v4
			c0,0.4,0.1,0.7,0.3,0.9S155.3,112.3,155.6,112.3z"/>
		<path fill="#FFFFFF" d="M166.1,109.7c0,0.6-0.1,1.2-0.2,1.7s-0.4,0.9-0.7,1.2s-0.7,0.6-1.1,0.8s-0.9,0.3-1.5,0.3
			c-0.5,0-1-0.1-1.4-0.3s-0.8-0.4-1.1-0.8s-0.6-0.7-0.7-1.2s-0.3-1-0.3-1.7c0-0.8,0.1-1.5,0.4-2.1s0.7-1,1.2-1.3s1.2-0.5,1.9-0.5
			s1.3,0.2,1.8,0.5s1,0.7,1.3,1.3S166.1,108.9,166.1,109.7z M160.7,109.7c0,0.6,0.1,1,0.2,1.4s0.3,0.7,0.6,0.9s0.6,0.3,1.1,0.3
			s0.8-0.1,1.1-0.3s0.5-0.5,0.6-0.9s0.2-0.9,0.2-1.4s-0.1-1-0.2-1.4s-0.3-0.7-0.6-0.9s-0.6-0.3-1.1-0.3c-0.7,0-1.2,0.2-1.5,0.7
			S160.7,108.9,160.7,109.7z"/>
		<path fill="#FFFFFF" d="M178.1,113.5h-1.6v-6.4c0-0.2,0-0.4,0-0.6s0-0.4,0-0.6s0-0.4,0-0.6c-0.1,0.1-0.2,0.2-0.4,0.3
			s-0.3,0.3-0.4,0.4l-1.1,0.9l-0.8-1l3-2.3h1.3V113.5z"/>
		<path fill="#FFFFFF" d="M189.2,108.5c0,0.8-0.1,1.5-0.2,2.2s-0.3,1.2-0.6,1.6s-0.6,0.8-1.1,1s-1,0.3-1.6,0.3
			c-0.8,0-1.4-0.2-1.9-0.6s-0.9-1-1.1-1.8s-0.4-1.7-0.4-2.8s0.1-2,0.3-2.8s0.6-1.4,1.1-1.8s1.2-0.6,2-0.6s1.4,0.2,1.9,0.6
			s0.9,1,1.1,1.8S189.2,107.4,189.2,108.5z M184.1,108.5c0,0.8,0.1,1.5,0.2,2.1s0.3,1,0.6,1.3s0.6,0.4,1,0.4s0.8-0.1,1-0.4
			s0.4-0.7,0.6-1.3s0.2-1.3,0.2-2.1c0-0.8-0.1-1.5-0.2-2.1s-0.3-1-0.6-1.3s-0.6-0.4-1-0.4s-0.8,0.1-1,0.4s-0.4,0.7-0.6,1.3
			S184.1,107.7,184.1,108.5z"/>
		<path fill="#FFFFFF" d="M199.9,103.5c1.3,0,2.2,0.3,2.8,0.8s0.9,1.3,0.9,2.2c0,0.4-0.1,0.8-0.2,1.2s-0.4,0.7-0.7,1
			s-0.7,0.5-1.2,0.7s-1.1,0.3-1.8,0.3h-1.1v3.7H197v-10h2.9V103.5z M199.8,104.9h-1.2v3.5h0.9c0.5,0,1-0.1,1.3-0.2s0.6-0.3,0.8-0.6
			s0.3-0.6,0.3-1c0-0.6-0.2-1-0.5-1.3S200.6,104.9,199.8,104.9z"/>
		<path fill="#FFFFFF" d="M211.1,113.5l-2.9-8.3h-0.1c0,0.2,0,0.4,0,0.8s0,0.7,0,1s0,0.7,0,1.1v5.5h-1.5v-10h2.3l2.8,8l0,0l2.9-8
			h2.3v10h-1.6V108c0-0.3,0-0.6,0-1s0-0.7,0-1s0-0.6,0-0.8h-0.1l-3,8.3H211.1z"/>
	</g>
	<path fill="none" stroke="#FFFFFF" stroke-width="0.9" stroke-miterlimit="10" d="M205.8,92.1H67.2c-11.4,0-20.7-9.3-20.7-20.7l0,0
		c0-11.4,9.3-20.7,20.7-20.7h138.6c11.4,0,20.7,9.3,20.7,20.7l0,0C226.5,82.9,217.2,92.1,205.8,92.1z"/>
	<line fill="none" stroke="#FFFFFF" stroke-width="0.9" stroke-miterlimit="10" x1="54.9" y1="70.3" x2="26.9" y2="70.3"/>
</g>
</svg>
