<?xml version="1.0" encoding="utf-8"?>
<!-- Generator: Adobe Illustrator 28.0.0, SVG Export Plug-In . SVG Version: 6.00 Build 0)  -->
<svg version="1.1" id="レイヤー_1" xmlns="http://www.w3.org/2000/svg" xmlns:xlink="http://www.w3.org/1999/xlink" x="0px"
	 y="0px" viewBox="0 0 254 198" enable-background="new 0 0 254 198" xml:space="preserve">
<g>
	<g>
		<path fill="#FFFFFF" d="M42.5,72.1H1.8V1.4h40.7v12.3H16.8v15.5h23.9v12.3H16.8v18.2h25.7V72.1z"/>
		<path fill="#FFFFFF" d="M118.4,72.1h-17.1L84.8,45.3L68.4,72.1h-16l23.4-36.4L53.8,1.4h16.5l15.2,25.4l14.9-25.4h16.1l-22.2,35
			L118.4,72.1z"/>
		<path fill="#FFFFFF" d="M151.8,1.4c9.1,0,15.8,2,20,5.9c4.2,3.9,6.3,9.3,6.3,16.2c0,3.1-0.5,6.1-1.4,8.9c-0.9,2.8-2.5,5.3-4.6,7.5
			c-2.1,2.2-4.9,3.9-8.4,5.2c-3.5,1.3-7.8,1.9-13,1.9h-6.4v25.1h-15V1.4H151.8z M151,13.7h-6.8v21h4.9c2.8,0,5.2-0.4,7.3-1.1
			c2.1-0.7,3.7-1.9,4.8-3.5c1.1-1.6,1.7-3.6,1.7-6.1c0-3.5-1-6.1-2.9-7.8C158.1,14.5,155.1,13.7,151,13.7z"/>
		<path fill="#FFFFFF" d="M253.6,36.6c0,5.4-0.7,10.4-2,14.9c-1.4,4.5-3.4,8.3-6.2,11.5c-2.8,3.2-6.2,5.7-10.5,7.4
			c-4.2,1.7-9.2,2.6-15,2.6c-5.8,0-10.8-0.9-15-2.6c-4.2-1.7-7.7-4.2-10.5-7.4c-2.8-3.2-4.8-7.1-6.2-11.6c-1.4-4.5-2-9.5-2-14.9
			c0-7.3,1.2-13.7,3.6-19.1C192.3,12,196,7.8,201,4.8c5-3,11.3-4.5,19-4.5c7.7,0,14,1.5,18.9,4.5c4.9,3,8.6,7.2,11,12.7
			C252.4,22.9,253.6,29.3,253.6,36.6z M202,36.6c0,4.9,0.6,9.2,1.9,12.7c1.2,3.6,3.2,6.3,5.8,8.2c2.6,1.9,6.1,2.9,10.2,2.9
			c4.3,0,7.7-1,10.3-2.9c2.6-1.9,4.6-4.7,5.8-8.2c1.2-3.6,1.8-7.8,1.8-12.7c0-7.4-1.4-13.2-4.2-17.5c-2.8-4.3-7.3-6.4-13.7-6.4
			c-4.2,0-7.7,1-10.3,2.9c-2.7,1.9-4.6,4.7-5.8,8.2C202.6,27.4,202,31.7,202,36.6z"/>
		<path fill="#FFFFFF" d="M50.2,162.1H0.8v-10.4l17.7-17.9c3.6-3.7,6.5-6.7,8.6-9.2c2.2-2.5,3.8-4.7,4.7-6.7c1-2,1.5-4.2,1.5-6.5
			c0-2.8-0.8-4.9-2.3-6.3c-1.6-1.4-3.6-2.1-6.3-2.1c-2.7,0-5.4,0.6-8,1.9c-2.6,1.3-5.3,3-8.1,5.4l-8.1-9.6c2-1.7,4.2-3.4,6.5-4.9
			C9.4,94,12,92.8,15,91.8c3-1,6.6-1.4,10.9-1.4c4.6,0,8.6,0.8,12,2.5c3.3,1.7,5.9,4,7.7,6.8c1.8,2.9,2.7,6.1,2.7,9.8
			c0,3.9-0.8,7.5-2.3,10.7c-1.5,3.2-3.8,6.4-6.7,9.6c-2.9,3.2-6.5,6.7-10.7,10.5l-9.1,8.6v0.7h30.8V162.1z"/>
		<path fill="#FFFFFF" d="M116.4,126.7c0,5.7-0.4,10.8-1.3,15.3c-0.9,4.5-2.3,8.3-4.3,11.4c-2,3.1-4.5,5.5-7.7,7.2
			c-3.2,1.6-7,2.5-11.5,2.5c-5.7,0-10.3-1.4-14-4.3c-3.6-2.9-6.3-7-8.1-12.5c-1.7-5.4-2.6-11.9-2.6-19.5c0-7.6,0.8-14.2,2.4-19.6
			c1.6-5.4,4.2-9.6,7.8-12.5c3.6-2.9,8.4-4.4,14.5-4.4c5.6,0,10.3,1.4,13.9,4.3c3.7,2.9,6.4,7,8.1,12.5
			C115.5,112.5,116.4,119.1,116.4,126.7z M81.8,126.7c0,5.4,0.3,9.9,0.9,13.5c0.6,3.6,1.6,6.3,3,8.1c1.4,1.8,3.4,2.7,5.9,2.7
			c2.5,0,4.4-0.9,5.9-2.7c1.4-1.8,2.5-4.5,3.1-8.1c0.6-3.6,0.9-8.1,0.9-13.5c0-5.4-0.3-9.9-0.9-13.5c-0.6-3.6-1.6-6.3-3.1-8.1
			c-1.4-1.8-3.4-2.7-5.9-2.7c-2.5,0-4.5,0.9-5.9,2.7c-1.4,1.8-2.4,4.5-3,8.1C82.1,116.9,81.8,121.4,81.8,126.7z"/>
		<path fill="#FFFFFF" d="M179.3,162.1h-49.4v-10.4l17.7-17.9c3.6-3.7,6.5-6.7,8.6-9.2c2.2-2.5,3.8-4.7,4.7-6.7c1-2,1.5-4.2,1.5-6.5
			c0-2.8-0.8-4.9-2.3-6.3c-1.6-1.4-3.6-2.1-6.3-2.1c-2.7,0-5.4,0.6-8,1.9c-2.6,1.3-5.3,3-8.1,5.4l-8.1-9.6c2-1.7,4.2-3.4,6.5-4.9
			c2.3-1.5,4.9-2.8,7.9-3.7c3-1,6.6-1.4,10.9-1.4c4.6,0,8.6,0.8,12,2.5c3.3,1.7,5.9,4,7.7,6.8c1.8,2.9,2.7,6.1,2.7,9.8
			c0,3.9-0.8,7.5-2.3,10.7c-1.5,3.2-3.8,6.4-6.7,9.6c-2.9,3.2-6.5,6.7-10.7,10.5l-9.1,8.6v0.7h30.8V162.1z"/>
		<path fill="#FFFFFF" d="M222.1,116.9c4.3,0,8.2,0.8,11.5,2.5c3.4,1.6,6,4.1,8,7.3s2.9,7.1,2.9,11.8c0,5.1-1.1,9.5-3.2,13.2
			c-2.1,3.7-5.3,6.5-9.4,8.5c-4.2,2-9.4,2.9-15.6,2.9c-3.7,0-7.2-0.3-10.5-0.9c-3.3-0.6-6.1-1.6-8.6-2.9v-12.9
			c2.4,1.3,5.4,2.4,8.8,3.3c3.4,0.9,6.7,1.3,9.7,1.3c3,0,5.5-0.4,7.5-1.2c2-0.8,3.6-2,4.6-3.7c1-1.7,1.6-3.8,1.6-6.4
			c0-3.4-1.2-6.1-3.5-7.9s-5.9-2.8-10.7-2.8c-1.8,0-3.7,0.2-5.7,0.5c-2,0.4-3.6,0.7-5,1.1l-5.9-3.2l2.7-36h38.3v12.7h-25.2
			l-1.3,13.9c1.1-0.2,2.3-0.5,3.6-0.7C218,117,219.8,116.9,222.1,116.9z"/>
	</g>
	<g>
		<path fill="#FFFFFF" d="M14,186.4c0,1.1-0.1,2.2-0.4,3.1c-0.3,0.9-0.7,1.7-1.3,2.4s-1.3,1.2-2.1,1.6c-0.8,0.4-1.8,0.5-2.9,0.5
			c-1.1,0-2.1-0.2-3-0.5s-1.6-0.9-2.1-1.6c-0.6-0.7-1-1.5-1.3-2.4c-0.3-0.9-0.4-2-0.4-3.1c0-1.5,0.2-2.8,0.7-4
			c0.5-1.1,1.3-2,2.3-2.7c1-0.6,2.3-1,3.8-1c1.5,0,2.7,0.3,3.7,0.9c1,0.6,1.8,1.5,2.3,2.6C13.8,183.5,14,184.9,14,186.4z M2.3,186.4
			c0,1.3,0.2,2.3,0.5,3.3c0.4,0.9,0.9,1.6,1.6,2.1c0.7,0.5,1.7,0.7,2.8,0.7c1.1,0,2.1-0.2,2.8-0.7c0.7-0.5,1.3-1.2,1.6-2.1
			c0.4-0.9,0.5-2,0.5-3.3c0-1.9-0.4-3.4-1.2-4.5c-0.8-1.1-2-1.6-3.7-1.6c-1.1,0-2.1,0.2-2.8,0.7c-0.7,0.5-1.3,1.2-1.7,2.1
			S2.3,185.1,2.3,186.4z"/>
		<path fill="#FFFFFF" d="M27.3,189.9c0,0.9-0.2,1.6-0.7,2.2c-0.4,0.6-1,1.1-1.8,1.4c-0.8,0.3-1.7,0.5-2.8,0.5c-0.6,0-1.1,0-1.6-0.1
			c-0.5-0.1-1-0.1-1.4-0.2c-0.4-0.1-0.8-0.2-1.1-0.4v-1.6c0.5,0.2,1.1,0.4,1.8,0.6c0.7,0.2,1.5,0.3,2.3,0.3c0.7,0,1.4-0.1,1.9-0.3
			c0.5-0.2,0.9-0.5,1.2-0.9s0.4-0.8,0.4-1.3c0-0.5-0.1-0.9-0.3-1.3c-0.2-0.3-0.6-0.7-1.1-0.9c-0.5-0.3-1.2-0.6-2.1-0.9
			c-0.6-0.2-1.2-0.5-1.7-0.7s-0.9-0.6-1.2-0.9c-0.3-0.3-0.6-0.7-0.7-1.2s-0.2-1-0.2-1.5c0-0.8,0.2-1.5,0.6-2s1-1,1.7-1.3
			s1.5-0.4,2.5-0.4c0.8,0,1.5,0.1,2.2,0.2c0.7,0.1,1.3,0.3,1.8,0.6l-0.5,1.5c-0.5-0.2-1.1-0.4-1.7-0.6c-0.6-0.1-1.2-0.2-1.8-0.2
			s-1.2,0.1-1.6,0.3c-0.4,0.2-0.8,0.4-1,0.8c-0.2,0.3-0.3,0.7-0.3,1.2c0,0.5,0.1,1,0.3,1.3c0.2,0.3,0.6,0.6,1.1,0.9
			c0.5,0.3,1.1,0.5,1.9,0.8c0.9,0.3,1.6,0.7,2.2,1c0.6,0.4,1.1,0.8,1.4,1.3C27.1,188.5,27.3,189.1,27.3,189.9z"/>
		<path fill="#FFFFFF" d="M41.2,193.8l-1.8-4.7h-5.9l-1.8,4.7h-1.7l5.8-14.8h1.5l5.7,14.8H41.2z M38.9,187.6l-1.7-4.7
			c0-0.1-0.1-0.3-0.2-0.6s-0.2-0.6-0.3-0.9c-0.1-0.3-0.2-0.5-0.2-0.7c-0.1,0.3-0.1,0.6-0.2,0.8c-0.1,0.3-0.2,0.5-0.2,0.8
			c-0.1,0.2-0.1,0.4-0.2,0.6l-1.8,4.7H38.9z"/>
		<path fill="#FFFFFF" d="M57.4,193.8h-2l-5.3-7.2l-1.6,1.4v5.8h-1.7V179h1.7v7.4c0.4-0.4,0.8-0.9,1.2-1.3s0.8-0.9,1.2-1.3l4.3-4.7
			h2l-5.9,6.4L57.4,193.8z"/>
		<path fill="#FFFFFF" d="M70.3,193.8l-1.8-4.7h-5.9l-1.8,4.7H59l5.8-14.8h1.5l5.7,14.8H70.3z M68,187.6l-1.7-4.7
			c0-0.1-0.1-0.3-0.2-0.6s-0.2-0.6-0.3-0.9c-0.1-0.3-0.2-0.5-0.2-0.7c-0.1,0.3-0.1,0.6-0.2,0.8c-0.1,0.3-0.2,0.5-0.2,0.8
			c-0.1,0.2-0.1,0.4-0.2,0.6l-1.8,4.7H68z"/>
		<path fill="#FFFFFF" d="M77.5,191.4l0.1,0.2c-0.1,0.5-0.3,1-0.5,1.6c-0.2,0.6-0.4,1.1-0.6,1.7c-0.2,0.6-0.4,1.1-0.7,1.6h-1.3
			c0.1-0.5,0.3-1.1,0.4-1.7s0.3-1.2,0.4-1.8c0.1-0.6,0.2-1.1,0.3-1.6H77.5z"/>
		<path fill="#FFFFFF" d="M100.5,193.8h-2l-5.3-7.2l-1.6,1.4v5.8h-1.7V179h1.7v7.4c0.4-0.4,0.8-0.9,1.2-1.3s0.8-0.9,1.2-1.3l4.3-4.7
			h2l-5.9,6.4L100.5,193.8z"/>
		<path fill="#FFFFFF" d="M113.4,193.8l-1.8-4.7h-5.9l-1.8,4.7h-1.7l5.8-14.8h1.5l5.7,14.8H113.4z M111.1,187.6l-1.7-4.7
			c0-0.1-0.1-0.3-0.2-0.6s-0.2-0.6-0.3-0.9c-0.1-0.3-0.2-0.5-0.2-0.7c-0.1,0.3-0.1,0.6-0.2,0.8c-0.1,0.3-0.2,0.5-0.2,0.8
			c-0.1,0.2-0.1,0.4-0.2,0.6l-1.8,4.7H111.1z"/>
		<path fill="#FFFFFF" d="M130.5,193.8h-2l-8.1-12.4h-0.1c0,0.3,0,0.7,0.1,1.1c0,0.4,0,0.9,0.1,1.3c0,0.5,0,1,0,1.5v8.5h-1.6V179h2
			l8,12.4h0.1c0-0.2,0-0.6-0.1-1c0-0.4,0-0.9-0.1-1.4c0-0.5,0-1,0-1.4V179h1.6V193.8z"/>
		<path fill="#FFFFFF" d="M144.5,189.9c0,0.9-0.2,1.6-0.7,2.2c-0.4,0.6-1,1.1-1.8,1.4c-0.8,0.3-1.7,0.5-2.8,0.5
			c-0.6,0-1.1,0-1.6-0.1c-0.5-0.1-1-0.1-1.4-0.2c-0.4-0.1-0.8-0.2-1.1-0.4v-1.6c0.5,0.2,1.1,0.4,1.8,0.6c0.7,0.2,1.5,0.3,2.3,0.3
			c0.7,0,1.4-0.1,1.9-0.3c0.5-0.2,0.9-0.5,1.2-0.9s0.4-0.8,0.4-1.3c0-0.5-0.1-0.9-0.3-1.3c-0.2-0.3-0.6-0.7-1.1-0.9
			c-0.5-0.3-1.2-0.6-2.1-0.9c-0.6-0.2-1.2-0.5-1.7-0.7s-0.9-0.6-1.2-0.9c-0.3-0.3-0.6-0.7-0.7-1.2s-0.2-1-0.2-1.5
			c0-0.8,0.2-1.5,0.6-2s1-1,1.7-1.3s1.5-0.4,2.5-0.4c0.8,0,1.5,0.1,2.2,0.2c0.7,0.1,1.3,0.3,1.8,0.6l-0.5,1.5
			c-0.5-0.2-1.1-0.4-1.7-0.6c-0.6-0.1-1.2-0.2-1.8-0.2s-1.2,0.1-1.6,0.3c-0.4,0.2-0.8,0.4-1,0.8c-0.2,0.3-0.3,0.7-0.3,1.2
			c0,0.5,0.1,1,0.3,1.3c0.2,0.3,0.6,0.6,1.1,0.9c0.5,0.3,1.1,0.5,1.9,0.8c0.9,0.3,1.6,0.7,2.2,1c0.6,0.4,1.1,0.8,1.4,1.3
			C144.3,188.5,144.5,189.1,144.5,189.9z"/>
		<path fill="#FFFFFF" d="M158.4,193.8l-1.8-4.7h-5.9l-1.8,4.7h-1.7l5.8-14.8h1.5l5.7,14.8H158.4z M156.1,187.6l-1.7-4.7
			c0-0.1-0.1-0.3-0.2-0.6s-0.2-0.6-0.3-0.9c-0.1-0.3-0.2-0.5-0.2-0.7c-0.1,0.3-0.1,0.6-0.2,0.8c-0.1,0.3-0.2,0.5-0.2,0.8
			c-0.1,0.2-0.1,0.4-0.2,0.6l-1.8,4.7H156.1z"/>
		<path fill="#FFFFFF" d="M163.9,193.8V179h1.7v14.8H163.9z"/>
		<path fill="#FFFFFF" d="M173,191.4l0.1,0.2c-0.1,0.5-0.3,1-0.5,1.6c-0.2,0.6-0.4,1.1-0.6,1.7c-0.2,0.6-0.4,1.1-0.7,1.6h-1.3
			c0.1-0.5,0.3-1.1,0.4-1.7s0.3-1.2,0.4-1.8c0.1-0.6,0.2-1.1,0.3-1.6H173z"/>
		<path fill="#FFFFFF" d="M183.2,197.7c-0.3,0-0.6,0-0.9-0.1c-0.3,0-0.5-0.1-0.7-0.2V196c0.2,0.1,0.4,0.1,0.7,0.2
			c0.2,0,0.5,0.1,0.8,0.1c0.4,0,0.7-0.1,1-0.2c0.3-0.1,0.6-0.4,0.8-0.8c0.2-0.4,0.3-0.8,0.3-1.5V179h1.7v14.6c0,0.9-0.2,1.7-0.5,2.3
			c-0.3,0.6-0.7,1.1-1.3,1.4S184,197.7,183.2,197.7z"/>
		<path fill="#FFFFFF" d="M201.9,193.8l-1.8-4.7h-5.9l-1.8,4.7h-1.7l5.8-14.8h1.5l5.7,14.8H201.9z M199.5,187.6l-1.7-4.7
			c0-0.1-0.1-0.3-0.2-0.6s-0.2-0.6-0.3-0.9c-0.1-0.3-0.2-0.5-0.2-0.7c-0.1,0.3-0.1,0.6-0.2,0.8c-0.1,0.3-0.2,0.5-0.2,0.8
			c-0.1,0.2-0.1,0.4-0.2,0.6l-1.8,4.7H199.5z"/>
		<path fill="#FFFFFF" d="M211.2,179c1.9,0,3.3,0.4,4.2,1.1s1.3,1.8,1.3,3.2c0,0.6-0.1,1.2-0.3,1.8s-0.5,1.1-1,1.5
			c-0.5,0.4-1.1,0.8-1.8,1s-1.7,0.4-2.7,0.4h-1.8v5.8h-1.7V179H211.2z M211,180.5h-2v6h1.6c0.9,0,1.7-0.1,2.4-0.3
			c0.6-0.2,1.1-0.5,1.4-1c0.3-0.5,0.5-1.1,0.5-1.8c0-1-0.3-1.7-0.9-2.2C213.4,180.7,212.4,180.5,211,180.5z"/>
		<path fill="#FFFFFF" d="M230.7,193.8l-1.8-4.7H223l-1.8,4.7h-1.7l5.8-14.8h1.5l5.7,14.8H230.7z M228.4,187.6l-1.7-4.7
			c0-0.1-0.1-0.3-0.2-0.6s-0.2-0.6-0.3-0.9c-0.1-0.3-0.2-0.5-0.2-0.7c-0.1,0.3-0.1,0.6-0.2,0.8c-0.1,0.3-0.2,0.5-0.2,0.8
			c-0.1,0.2-0.1,0.4-0.2,0.6l-1.8,4.7H228.4z"/>
		<path fill="#FFFFFF" d="M247.7,193.8h-2l-8.1-12.4h-0.1c0,0.3,0,0.7,0.1,1.1c0,0.4,0,0.9,0.1,1.3c0,0.5,0,1,0,1.5v8.5h-1.6V179h2
			l8,12.4h0.1c0-0.2,0-0.6-0.1-1c0-0.4,0-0.9-0.1-1.4c0-0.5,0-1,0-1.4V179h1.6V193.8z"/>
	</g>
</g>
</svg>
