<?xml version="1.0" encoding="UTF-8"?><svg id="_レイヤー_1" xmlns="http://www.w3.org/2000/svg" viewBox="0 0 235.64 92.99"><path d="m3.47,92.52c-.07-.19-.17-.42-.31-.67-.13-.26-.28-.51-.43-.76-.16-.25-.3-.44-.43-.57,1.64-.36,2.9-.93,3.77-1.71.87-.78,1.38-1.84,1.52-3.17-1.04.01-2.04.03-2.99.05-.95.02-1.75.04-2.42.06s-1.1.04-1.3.06l-.14-2.07c.13.01.41.02.84.03.43,0,.96,0,1.59,0,.64,0,1.34-.02,2.11-.03.77-.01,1.56-.02,2.38-.04v-2.48c-1.44.2-2.77.32-3.98.36-.02-.19-.07-.42-.14-.68-.07-.26-.15-.51-.24-.76-.09-.25-.18-.45-.26-.59.78.01,1.61-.02,2.48-.09s1.75-.17,2.63-.31c.88-.13,1.7-.3,2.48-.5.78-.2,1.46-.42,2.03-.66l.85,1.84c-.48.19-1.03.37-1.65.54-.62.17-1.27.32-1.95.47v2.81c.94-.02,1.81-.05,2.63-.07.82-.02,1.51-.05,2.07-.08s.92-.06,1.08-.08v2.16c-.18-.01-.56-.02-1.12-.02s-1.26,0-2.08,0c-.82,0-1.69.02-2.61.03-.14,1.81-.75,3.28-1.82,4.39-1.07,1.12-2.59,1.96-4.57,2.52Z" fill="#fff" stroke-width="0"/><path d="m24.14,92.99c-.18-.28-.43-.59-.76-.94s-.62-.61-.9-.79c1.5-.79,2.64-1.78,3.42-2.98.78-1.19,1.23-2.59,1.35-4.19h-3.46c-.44.55-.91,1.06-1.4,1.53-.49.47-1.01.89-1.57,1.28-.19-.23-.45-.5-.77-.81-.32-.31-.62-.55-.9-.7.89-.58,1.69-1.27,2.39-2.09s1.32-1.7,1.83-2.65c.51-.95.89-1.89,1.14-2.83l2.18.65c-.18.61-.39,1.21-.64,1.79s-.52,1.15-.84,1.7h8.62v2.12h-4.34c-.12,1.96-.63,3.67-1.52,5.13-.89,1.46-2.18,2.72-3.84,3.76Z" fill="#fff" stroke-width="0"/><path d="m40.73,86.82c-.04-.24-.11-.55-.23-.92s-.25-.74-.4-1.1c-.15-.36-.29-.64-.41-.83l1.64-.59c.12.2.25.49.4.86.14.37.28.75.41,1.12s.22.7.28.96l-1.67.49Zm1.12,5.53c-.1-.25-.24-.54-.43-.87-.19-.33-.38-.58-.56-.77,2.08-.49,3.75-1.37,5.03-2.63,1.28-1.26,2.07-2.97,2.37-5.13l1.75.29c-.26,1.74-.77,3.2-1.5,4.39-.74,1.19-1.67,2.16-2.79,2.91s-2.41,1.35-3.86,1.81Zm1.96-6.21c-.02-.24-.09-.55-.2-.93-.11-.38-.23-.75-.36-1.12-.13-.37-.26-.64-.38-.84l1.64-.54c.11.22.23.51.37.88.14.37.26.75.38,1.12.11.38.19.7.24.96l-1.69.45Z" fill="#fff" stroke-width="0"/><path d="m61.29,92.67v-14.51h2.2v5.45l.81-1.15c.29.2.67.46,1.14.77.47.31.98.62,1.52.94.54.32,1.06.61,1.57.87.5.26.93.46,1.28.59-.14.13-.31.32-.5.57-.19.25-.36.5-.51.76-.16.26-.28.48-.38.66-.29-.16-.65-.36-1.07-.6-.43-.25-.88-.52-1.35-.82-.47-.3-.93-.6-1.37-.89-.44-.29-.82-.56-1.14-.8v8.17h-2.2Z" fill="#fff" stroke-width="0"/><path d="m81.41,92.4v-7.79c-.91.62-1.84,1.2-2.8,1.74-.95.53-1.89,1-2.8,1.4-.1-.18-.23-.39-.4-.63-.17-.24-.34-.47-.53-.7-.19-.23-.37-.41-.55-.54,1.04-.37,2.12-.86,3.24-1.46s2.19-1.27,3.23-2c1.04-.73,1.99-1.5,2.85-2.3.86-.8,1.57-1.6,2.11-2.39l1.87,1.28c-.52.68-1.11,1.36-1.79,2.02-.68.67-1.41,1.31-2.19,1.94v9.45h-2.25Z" fill="#fff" stroke-width="0"/><path d="m97.09,83.67c-.16-.17-.38-.37-.66-.59s-.59-.47-.94-.72c-.34-.25-.67-.48-1-.69-.32-.21-.61-.37-.85-.48l1.44-1.82c.24.13.52.3.85.5s.66.43,1,.67.66.48.96.71.54.44.72.62l-1.53,1.8Zm-1.93,7.94l-1.22-2.21c.85-.18,1.75-.48,2.69-.89.94-.41,1.89-.9,2.83-1.46.95-.56,1.85-1.16,2.7-1.8.85-.64,1.62-1.29,2.31-1.95.69-.66,1.25-1.29,1.68-1.89.05.2.13.46.24.76s.24.59.37.87c.13.28.25.5.34.66-.59.76-1.32,1.52-2.21,2.29-.88.77-1.86,1.52-2.92,2.23-1.07.71-2.18,1.37-3.35,1.95s-2.32,1.07-3.47,1.44Z" fill="#fff" stroke-width="0"/><path d="m114.32,92.06c-.07-.16-.19-.36-.34-.61s-.33-.5-.51-.76c-.19-.25-.36-.45-.53-.59,2.28-.76,4.17-1.79,5.66-3.11,1.49-1.32,2.57-3.01,3.23-5.08-.56.01-1.21.03-1.93.05-.72.02-1.46.05-2.2.07-.75.02-1.47.05-2.16.07-.69.02-1.29.05-1.81.07-.52.02-.89.04-1.13.05l-.14-2.43c.35.02.8.04,1.37.05.56.01,1.19.02,1.88.02s1.4,0,2.12,0c.73,0,1.43-.02,2.11-.04.68-.02,1.3-.04,1.85-.06.55-.02.99-.05,1.31-.07l1.46.76c-.41,1.92-1.08,3.64-2.02,5.16-.94,1.52-2.1,2.82-3.49,3.91s-2.97,1.94-4.73,2.55Z" fill="#fff" stroke-width="0"/><path d="m135.95,92.74c-.05-.24-.11-.53-.18-.85-.07-.33-.17-.61-.31-.84.77.01,1.28-.04,1.53-.16s.37-.35.36-.7c0-.12,0-.44-.03-.97-.02-.53-.04-1.14-.06-1.84-.66.88-1.46,1.67-2.39,2.39-.94.71-1.89,1.31-2.86,1.77-.11-.24-.26-.5-.45-.77-.19-.27-.39-.48-.59-.64.59-.24,1.21-.57,1.85-.98.65-.41,1.27-.88,1.86-1.39.59-.51,1.1-1.03,1.52-1.56-.7.01-1.36.03-1.98.05-.62.02-1.15.04-1.58.06-.43.02-.7.04-.82.06l-.09-1.67c.26.01.68.02,1.24.02s1.21,0,1.94-.03c.73-.02,1.48-.03,2.25-.04l-.11-2.84h1.76l.09,2.79c.71-.02,1.35-.05,1.93-.09.58-.04,1.01-.06,1.31-.07v1.66c-.14-.01-.51-.02-1.1,0-.59,0-1.28.02-2.09.05.02.66.04,1.3.06,1.94.02.63.04,1.16.05,1.59.02.43.03.7.03.79.04.88-.21,1.48-.73,1.8-.52.32-1.33.49-2.44.49Z" fill="#fff" stroke-width="0"/><path d="m149.67,92.24c-.16-.25-.38-.56-.66-.92-.28-.36-.54-.64-.78-.83,1.28-.6,2.49-1.36,3.63-2.27,1.13-.91,2.16-1.91,3.07-3.01-.55-.42-1.09-.8-1.6-1.13-.52-.34-.98-.6-1.39-.79l1.3-1.53c.44.2.92.46,1.42.77s1.01.65,1.53,1.01c.53-.78.99-1.58,1.38-2.41.39-.83.7-1.64.93-2.45l2.11.72c-.64,1.92-1.52,3.73-2.66,5.42.54.43,1.05.86,1.53,1.29.48.43.89.83,1.22,1.2-.17.14-.36.33-.57.55-.21.22-.41.44-.6.67-.19.22-.35.42-.47.58-.29-.36-.65-.76-1.07-1.19-.43-.43-.88-.86-1.38-1.3-.95,1.15-2,2.21-3.17,3.17s-2.42,1.78-3.76,2.45Z" fill="#fff" stroke-width="0"/><path d="m166.16,86.44c.01-.17.02-.4.02-.68v-.86c0-.29,0-.52-.02-.68.23.01.63.02,1.21.04.58.01,1.28.02,2.09.04s1.68.02,2.6.03c.92,0,1.85,0,2.77,0s1.8,0,2.62-.02c.82-.01,1.53-.02,2.13-.04.6-.01,1.03-.03,1.28-.05-.01.16-.02.38-.03.67s0,.58,0,.87,0,.52,0,.67c-.3-.01-.74-.02-1.32-.04-.58-.01-1.26-.02-2.03-.04-.77-.01-1.6-.02-2.47-.02h-2.64c-.89,0-1.73,0-2.54.02-.8.01-1.53.02-2.17.04s-1.15.03-1.52.05Z" fill="#fff" stroke-width="0"/><path d="m188.31,86.3c-.23-.19-.56-.4-.99-.64-.43-.23-.88-.46-1.34-.68s-.86-.39-1.18-.5l1.12-1.94c.35.13.75.31,1.22.54.46.23.91.46,1.34.7.43.24.77.44,1.03.61l-1.19,1.91Zm-.85,5.83l-1.22-2.2c.86-.19,1.77-.5,2.71-.91.94-.41,1.88-.9,2.82-1.46.94-.56,1.83-1.16,2.68-1.8.85-.64,1.62-1.29,2.3-1.94.68-.65,1.24-1.28,1.67-1.88.05.2.13.46.24.76.11.3.24.59.37.87.13.28.25.5.34.66-.6.76-1.34,1.52-2.22,2.29s-1.85,1.51-2.91,2.22c-1.06.71-2.16,1.36-3.32,1.94-1.16.58-2.31,1.06-3.46,1.45Zm3.35-9.54c-.16-.14-.38-.32-.67-.52-.29-.2-.62-.42-.96-.64-.35-.22-.68-.42-1-.6-.32-.18-.58-.31-.78-.4l1.22-1.87c.24.12.53.28.86.49.33.2.67.42,1.01.64s.66.44.95.64.52.37.67.5l-1.3,1.76Z" fill="#fff" stroke-width="0"/><path d="m205.77,91.43v-1.66c.24.01.65.02,1.23.04.58.01,1.28.02,2.09.02h3.63v-1.76h-2.78c-.62,0-1.21,0-1.76,0s-1.04.02-1.44.03c-.4.01-.68.02-.84.04v-1.67c.25.01.66.02,1.23.04.57.01,1.25.02,2.05.03.8,0,1.65,0,2.57,0h.97v-1.62h-2.98c-.62,0-1.21,0-1.76,0-.56,0-1.04.02-1.45.03-.41.01-.69.02-.85.04v-1.67c.25.01.66.02,1.23.04.57.01,1.25.02,2.05.03.8,0,1.66,0,2.58,0,.73,0,1.36,0,1.89-.03s.88-.03,1.04-.04v8.06h-4.64c-.62,0-1.22,0-1.78,0-.56,0-1.05.01-1.45.02-.4,0-.68.02-.84.03Z" fill="#fff" stroke-width="0"/><path d="m225.61,83.67c-.16-.17-.38-.37-.66-.59s-.59-.47-.94-.72c-.34-.25-.67-.48-1-.69-.32-.21-.61-.37-.85-.48l1.44-1.82c.24.13.52.3.85.5s.66.43,1,.67.66.48.96.71.54.44.72.62l-1.53,1.8Zm-1.93,7.94l-1.22-2.21c.85-.18,1.75-.48,2.69-.89.94-.41,1.89-.9,2.83-1.46.95-.56,1.85-1.16,2.7-1.8.85-.64,1.62-1.29,2.31-1.95.69-.66,1.25-1.29,1.68-1.89.05.2.13.46.24.76s.24.59.37.87c.13.28.25.5.34.66-.59.76-1.32,1.52-2.21,2.29-.88.77-1.86,1.52-2.92,2.23-1.07.71-2.18,1.37-3.35,1.95s-2.32,1.07-3.47,1.44Z" fill="#fff" stroke-width="0"/><path d="m12.77,28.11h-5.6V6.36H0V1.7h19.95v4.66h-7.17v21.75Z" fill="#fff" stroke-width="0"/><path d="m27.08,0c.82,0,1.52.19,2.11.57s.89,1.09.89,2.12-.3,1.73-.89,2.12c-.59.39-1.29.59-2.11.59s-1.54-.2-2.12-.59c-.58-.39-.88-1.1-.88-2.12s.29-1.74.88-2.12c.58-.38,1.29-.57,2.12-.57Zm2.75,7.91v20.2h-5.51V7.91h5.51Z" fill="#fff" stroke-width="0"/><path d="m44.55,28.47c-2,0-3.7-.36-5.11-1.09-1.41-.73-2.48-1.86-3.22-3.39-.73-1.53-1.1-3.49-1.1-5.87s.42-4.48,1.26-6.04c.84-1.56,2-2.71,3.49-3.44,1.49-.73,3.21-1.1,5.18-1.1,1.4,0,2.6.14,3.62.41,1.02.27,1.91.59,2.66.97l-1.62,4.26c-.87-.35-1.67-.63-2.42-.86-.75-.22-1.49-.33-2.24-.33-.96,0-1.76.23-2.4.68s-1.11,1.13-1.43,2.03c-.31.9-.47,2.04-.47,3.4s.17,2.45.51,3.32c.34.88.82,1.53,1.46,1.96.64.43,1.42.64,2.33.64,1.14,0,2.16-.15,3.05-.46s1.76-.74,2.6-1.29v4.71c-.84.53-1.73.91-2.65,1.15-.92.23-2.09.35-3.5.35Z" fill="#fff" stroke-width="0"/><path d="m61.62,0v12.57c0,.76-.03,1.52-.09,2.28s-.13,1.52-.2,2.28h.07c.37-.53.76-1.05,1.15-1.57.39-.52.81-1.02,1.26-1.5l5.66-6.14h6.21l-8.02,8.76,8.51,11.44h-6.36l-5.82-8.18-2.37,1.9v6.29h-5.51V0h5.51Z" fill="#fff" stroke-width="0"/><path d="m88.12,7.53c1.87,0,3.48.36,4.82,1.08,1.35.72,2.39,1.76,3.12,3.12.74,1.36,1.1,3.02,1.1,4.99v2.67h-13.03c.06,1.55.53,2.77,1.4,3.66s2.09,1.33,3.64,1.33c1.29,0,2.47-.13,3.54-.4,1.07-.26,2.17-.66,3.31-1.19v4.26c-1,.49-2.04.86-3.13,1.08-1.09.23-2.41.34-3.97.34-2.02,0-3.82-.37-5.38-1.12-1.56-.75-2.78-1.89-3.67-3.42-.89-1.53-1.33-3.46-1.33-5.78s.4-4.33,1.2-5.9,1.92-2.75,3.35-3.54c1.43-.79,3.1-1.18,5-1.18Zm.04,3.92c-1.07,0-1.96.34-2.67,1.03-.71.69-1.11,1.76-1.22,3.23h7.73c-.01-.82-.16-1.55-.44-2.19-.28-.64-.71-1.14-1.26-1.52-.56-.37-1.27-.56-2.14-.56Z" fill="#fff" stroke-width="0"/><path d="m110.91,24.08c.6,0,1.19-.06,1.76-.18.57-.12,1.14-.27,1.71-.45v4.1c-.59.27-1.32.49-2.2.66-.87.17-1.83.26-2.86.26-1.21,0-2.29-.2-3.24-.59-.96-.39-1.71-1.07-2.26-2.04-.55-.97-.82-2.32-.82-4.06v-9.74h-2.64v-2.33l3.04-1.84,1.59-4.26h3.52v4.3h5.66v4.14h-5.66v9.74c0,.77.22,1.35.66,1.73s1.02.57,1.74.57Z" fill="#fff" stroke-width="0"/><path d="m133.29,22.11c0,1.37-.32,2.53-.97,3.48-.64.95-1.6,1.66-2.88,2.15-1.28.49-2.87.73-4.77.73-1.41,0-2.62-.09-3.62-.27s-2.02-.48-3.04-.9v-4.55c1.1.49,2.27.9,3.53,1.22,1.26.32,2.36.48,3.31.48,1.07,0,1.84-.16,2.3-.48.46-.32.7-.74.7-1.26,0-.34-.09-.64-.28-.91-.19-.27-.59-.58-1.2-.92-.61-.34-1.58-.79-2.89-1.35-1.26-.53-2.3-1.07-3.12-1.61-.81-.54-1.42-1.18-1.81-1.92s-.59-1.68-.59-2.83c0-1.87.73-3.27,2.18-4.22,1.45-.95,3.39-1.42,5.83-1.42,1.25,0,2.45.13,3.59.38,1.14.25,2.31.66,3.51,1.21l-1.66,3.97c-1-.43-1.94-.79-2.83-1.07-.89-.28-1.79-.42-2.7-.42-.81,0-1.42.11-1.83.33-.41.22-.61.55-.61.99,0,.33.1.61.32.87s.62.53,1.23.84,1.5.7,2.68,1.18c1.14.47,2.14.96,2.98,1.47.84.51,1.49,1.14,1.95,1.9.46.75.69,1.73.69,2.92Z" fill="#fff" stroke-width="0"/><path d="m2.58,64.11v-26.41h5.6v26.41H2.58Z" fill="#fff" stroke-width="0"/><path d="m26.61,43.53c2.16,0,3.89.59,5.2,1.76,1.31,1.17,1.97,3.06,1.97,5.65v13.17h-5.51v-11.8c0-1.45-.26-2.54-.79-3.27-.52-.73-1.35-1.1-2.47-1.1-1.69,0-2.84.57-3.45,1.72-.61,1.14-.92,2.79-.92,4.95v9.5h-5.51v-20.2h4.21l.74,2.58h.31c.43-.7.97-1.26,1.62-1.7s1.36-.75,2.15-.96c.79-.21,1.6-.31,2.45-.31Z" fill="#fff" stroke-width="0"/><path d="m51.36,48.05h-4.77v16.06h-5.51v-16.06h-3.04v-2.66l3.04-1.48v-1.48c0-1.72.29-3.06.88-4.02.58-.96,1.41-1.63,2.47-2.02,1.07-.39,2.33-.59,3.79-.59,1.07,0,2.05.09,2.93.26.88.17,1.6.37,2.15.59l-1.41,4.05c-.42-.13-.88-.25-1.37-.36-.49-.11-1.06-.16-1.7-.16-.77,0-1.33.23-1.69.7-.36.46-.53,1.06-.53,1.78v1.26h4.77v4.14Z" fill="#fff" stroke-width="0"/><path d="m73.62,53.98c0,1.69-.23,3.18-.68,4.48-.45,1.3-1.11,2.4-1.97,3.3-.86.9-1.9,1.57-3.11,2.03-1.21.46-2.57.69-4.09.69-1.42,0-2.73-.23-3.91-.69-1.19-.46-2.22-1.14-3.09-2.03-.87-.9-1.55-2-2.02-3.3-.48-1.3-.71-2.79-.71-4.48,0-2.24.4-4.14,1.19-5.69s1.93-2.73,3.4-3.54c1.47-.81,3.22-1.21,5.26-1.21,1.89,0,3.57.4,5.03,1.21,1.46.81,2.61,1.99,3.45,3.54s1.26,3.45,1.26,5.69Zm-13.96,0c0,1.33.14,2.44.43,3.34s.74,1.58,1.35,2.04c.61.46,1.42.69,2.4.69s1.77-.23,2.38-.69c.61-.46,1.05-1.14,1.34-2.04s.42-2.02.42-3.34-.14-2.45-.42-3.33-.73-1.55-1.35-2c-.61-.45-1.42-.67-2.4-.67-1.46,0-2.51.5-3.17,1.5-.66,1-.98,2.5-.98,4.5Z" fill="#fff" stroke-width="0"/><path d="m90.18,43.53c.28,0,.6.02.97.05.37.03.67.07.89.12l-.42,5.17c-.18-.06-.44-.11-.77-.14-.33-.03-.62-.04-.86-.04-.71,0-1.4.09-2.07.27-.67.18-1.27.47-1.8.88-.53.4-.95.93-1.26,1.59-.31.66-.46,1.46-.46,2.41v10.28h-5.51v-20.2h4.17l.81,3.4h.27c.4-.69.89-1.32,1.49-1.89.6-.57,1.28-1.03,2.04-1.37s1.59-.52,2.48-.52Z" fill="#fff" stroke-width="0"/><path d="m120.17,43.53c2.29,0,4.02.59,5.19,1.76,1.17,1.17,1.76,3.06,1.76,5.65v13.17h-5.53v-11.8c0-1.45-.25-2.54-.74-3.27-.49-.73-1.26-1.1-2.29-1.1-1.46,0-2.49.52-3.11,1.56-.61,1.04-.92,2.53-.92,4.47v10.14h-5.51v-11.8c0-.96-.11-1.77-.33-2.42s-.55-1.14-.99-1.46c-.45-.33-1.02-.49-1.72-.49-1.02,0-1.83.26-2.41.77-.58.51-1,1.26-1.25,2.26-.25.99-.37,2.21-.37,3.64v9.5h-5.51v-20.2h4.21l.74,2.58h.31c.41-.7.92-1.26,1.54-1.7s1.3-.75,2.05-.96c.75-.21,1.51-.31,2.28-.31,1.48,0,2.74.24,3.77.72,1.03.48,1.82,1.23,2.38,2.24h.49c.6-1.04,1.45-1.79,2.56-2.26,1.1-.47,2.24-.71,3.41-.71Z" fill="#fff" stroke-width="0"/><path d="m141.8,43.5c2.71,0,4.79.59,6.23,1.77,1.45,1.18,2.17,2.98,2.17,5.38v13.46h-3.85l-1.07-2.75h-.14c-.58.72-1.17,1.31-1.77,1.77-.6.46-1.29.79-2.08,1.01s-1.73.33-2.85.33c-1.19,0-2.26-.23-3.21-.69-.95-.46-1.69-1.16-2.23-2.1-.54-.95-.81-2.15-.81-3.6,0-2.14.75-3.72,2.26-4.74,1.5-1.02,3.76-1.58,6.77-1.69l3.5-.11v-.89c0-1.06-.28-1.84-.83-2.33-.55-.49-1.33-.74-2.31-.74s-1.93.14-2.87.42c-.94.28-1.88.63-2.82,1.05l-1.83-3.72c1.07-.57,2.27-1.01,3.6-1.34,1.33-.33,2.71-.49,4.13-.49Zm2.93,11.26l-2.13.07c-1.78.05-3.02.37-3.71.96-.69.59-1.04,1.37-1.04,2.33,0,.84.25,1.44.74,1.8.49.36,1.14.53,1.93.53,1.18,0,2.18-.35,2.99-1.05.81-.7,1.22-1.69,1.22-2.98v-1.66Z" fill="#fff" stroke-width="0"/><path d="m165.12,60.08c.6,0,1.19-.06,1.76-.18.57-.12,1.14-.27,1.71-.45v4.1c-.59.27-1.32.49-2.2.66-.87.17-1.83.26-2.86.26-1.21,0-2.29-.2-3.24-.59-.96-.39-1.71-1.07-2.26-2.04-.55-.97-.82-2.32-.82-4.06v-9.74h-2.64v-2.33l3.04-1.84,1.59-4.26h3.52v4.3h5.66v4.14h-5.66v9.74c0,.77.22,1.35.66,1.73s1.02.57,1.74.57Z" fill="#fff" stroke-width="0"/><path d="m176.18,36c.82,0,1.52.19,2.11.57s.89,1.09.89,2.12-.3,1.73-.89,2.12c-.59.39-1.29.59-2.11.59s-1.54-.2-2.12-.59c-.58-.39-.88-1.1-.88-2.12s.29-1.74.88-2.12c.58-.38,1.29-.57,2.12-.57Zm2.75,7.91v20.2h-5.51v-20.2h5.51Z" fill="#fff" stroke-width="0"/><path d="m203.8,53.98c0,1.69-.23,3.18-.68,4.48-.45,1.3-1.11,2.4-1.97,3.3-.86.9-1.9,1.57-3.11,2.03-1.21.46-2.57.69-4.09.69-1.42,0-2.73-.23-3.91-.69-1.19-.46-2.22-1.14-3.09-2.03-.87-.9-1.55-2-2.02-3.3-.48-1.3-.71-2.79-.71-4.48,0-2.24.4-4.14,1.19-5.69s1.93-2.73,3.4-3.54c1.47-.81,3.22-1.21,5.26-1.21,1.89,0,3.57.4,5.03,1.21,1.46.81,2.61,1.99,3.45,3.54s1.26,3.45,1.26,5.69Zm-13.96,0c0,1.33.14,2.44.43,3.34s.74,1.58,1.35,2.04c.61.46,1.42.69,2.4.69s1.77-.23,2.38-.69c.61-.46,1.05-1.14,1.34-2.04s.42-2.02.42-3.34-.14-2.45-.42-3.33-.73-1.55-1.35-2c-.61-.45-1.42-.67-2.4-.67-1.46,0-2.51.5-3.17,1.5-.66,1-.98,2.5-.98,4.5Z" fill="#fff" stroke-width="0"/><path d="m220.56,43.53c2.16,0,3.89.59,5.2,1.76,1.31,1.17,1.97,3.06,1.97,5.65v13.17h-5.51v-11.8c0-1.45-.26-2.54-.79-3.27-.52-.73-1.35-1.1-2.47-1.1-1.69,0-2.84.57-3.45,1.72-.61,1.14-.92,2.79-.92,4.95v9.5h-5.51v-20.2h4.21l.74,2.58h.31c.43-.7.97-1.26,1.62-1.7s1.36-.75,2.15-.96c.79-.21,1.6-.31,2.45-.31Z" fill="#fff" stroke-width="0"/></svg>