<?xml version="1.0" encoding="utf-8"?>
<!-- Generator: Adobe Illustrator 28.0.0, SVG Export Plug-In . SVG Version: 6.00 Build 0)  -->
<svg version="1.1" id="レイヤー_1" xmlns="http://www.w3.org/2000/svg" xmlns:xlink="http://www.w3.org/1999/xlink" x="0px"
	 y="0px" viewBox="0 0 410 140" enable-background="new 0 0 410 140" xml:space="preserve">
<g>
	<g>
		<g>
			<path fill="#FFFFFF" d="M28.7,43.9H6.1V4.6h22.6v6.8H14.4v8.6h13.3v6.8H14.4V37h14.3V43.9z"/>
			<path fill="#FFFFFF" d="M43.5,28.6l-9.7-14.7h9.3l5.8,9.6l5.9-9.6h9.3l-9.8,14.7l10.2,15.3h-9.3l-6.3-10.3l-6.3,10.3h-9.3
				L43.5,28.6z"/>
			<path fill="#FFFFFF" d="M86.9,13.3c3.4,0,6.1,1.3,8.2,3.9c2.1,2.6,3.1,6.5,3.1,11.6c0,3.4-0.5,6.3-1.5,8.6
				c-1,2.3-2.3,4.1-4.1,5.2c-1.7,1.2-3.7,1.8-6,1.8c-1.5,0-2.7-0.2-3.7-0.6c-1-0.4-1.9-0.8-2.7-1.4c-0.7-0.6-1.4-1.2-1.9-1.9H78
				c0.1,0.7,0.3,1.5,0.3,2.2c0.1,0.8,0.1,1.5,0.1,2.2v12.1h-8.2V13.9h6.7l1.2,3.9h0.4c0.5-0.8,1.2-1.5,2-2.2
				c0.8-0.7,1.7-1.2,2.8-1.6C84.2,13.5,85.5,13.3,86.9,13.3z M84.3,19.9c-1.4,0-2.6,0.3-3.4,0.9c-0.8,0.6-1.5,1.5-1.8,2.7
				c-0.4,1.2-0.6,2.7-0.6,4.5v0.9c0,1.9,0.2,3.6,0.6,4.9c0.4,1.3,1,2.4,1.9,3.1c0.9,0.7,2.1,1,3.6,1c1.3,0,2.3-0.3,3.1-1
				s1.4-1.7,1.8-3.1c0.4-1.4,0.6-3,0.6-5c0-2.9-0.5-5.1-1.4-6.6C87.6,20.6,86.2,19.9,84.3,19.9z"/>
			<path fill="#FFFFFF" d="M133.4,28.8c0,2.5-0.3,4.7-1,6.7c-0.7,1.9-1.6,3.6-2.9,4.9c-1.3,1.3-2.8,2.3-4.6,3c-1.8,0.7-3.8,1-6.1,1
				c-2.1,0-4.1-0.3-5.8-1c-1.8-0.7-3.3-1.7-4.6-3c-1.3-1.3-2.3-3-3-4.9c-0.7-1.9-1.1-4.2-1.1-6.7c0-3.3,0.6-6.1,1.8-8.5
				s2.9-4.1,5-5.3c2.2-1.2,4.8-1.8,7.8-1.8c2.8,0,5.3,0.6,7.5,1.8c2.2,1.2,3.9,3,5.1,5.3C132.8,22.7,133.4,25.5,133.4,28.8z
				 M112.6,28.8c0,2,0.2,3.6,0.6,5s1.1,2.4,2,3c0.9,0.7,2.1,1,3.6,1c1.5,0,2.6-0.3,3.5-1c0.9-0.7,1.6-1.7,2-3c0.4-1.3,0.6-3,0.6-5
				c0-2-0.2-3.6-0.6-5c-0.4-1.3-1.1-2.3-2-3c-0.9-0.7-2.1-1-3.6-1c-2.2,0-3.7,0.7-4.7,2.2C113.1,23.6,112.6,25.9,112.6,28.8z"/>
			<path fill="#FFFFFF" d="M180.5,33c0,2.3-0.6,4.4-1.7,6.1s-2.8,3-4.9,4c-2.2,0.9-4.8,1.4-7.9,1.4c-1.4,0-2.7-0.1-4-0.3
				c-1.3-0.2-2.5-0.4-3.7-0.8c-1.2-0.3-2.3-0.8-3.4-1.3v-7.7c1.9,0.8,3.8,1.6,5.8,2.2c2,0.7,4,1,6,1c1.4,0,2.5-0.2,3.3-0.5
				c0.8-0.4,1.4-0.9,1.8-1.5c0.4-0.6,0.6-1.3,0.6-2.1c0-1-0.3-1.8-1-2.5c-0.7-0.7-1.6-1.4-2.7-2c-1.2-0.6-2.5-1.3-3.9-2
				c-0.9-0.4-1.9-1-3-1.6c-1.1-0.6-2.1-1.4-3.1-2.3c-1-0.9-1.8-2-2.4-3.3c-0.6-1.3-0.9-2.8-0.9-4.6c0-2.3,0.5-4.4,1.6-6
				s2.6-2.9,4.6-3.8c2-0.9,4.4-1.3,7.1-1.3c2,0,4,0.2,5.8,0.7c1.9,0.5,3.8,1.2,5.8,2.1l-2.7,6.5c-1.8-0.7-3.4-1.3-4.9-1.7
				c-1.4-0.4-2.9-0.6-4.4-0.6c-1,0-1.9,0.2-2.7,0.5c-0.7,0.3-1.3,0.8-1.7,1.4c-0.4,0.6-0.6,1.3-0.6,2.1c0,0.9,0.3,1.7,0.8,2.4
				c0.5,0.6,1.4,1.2,2.5,1.8c1.1,0.6,2.5,1.3,4.1,2.1c2,0.9,3.7,1.9,5.1,3c1.4,1,2.5,2.2,3.3,3.6C180.1,29.2,180.5,30.9,180.5,33z"
				/>
			<path fill="#FFFFFF" d="M192.2,2.1c1.2,0,2.3,0.3,3.1,0.8c0.9,0.6,1.3,1.6,1.3,3.2c0,1.5-0.4,2.6-1.3,3.2
				c-0.9,0.6-1.9,0.9-3.1,0.9c-1.2,0-2.3-0.3-3.2-0.9c-0.9-0.6-1.3-1.6-1.3-3.2c0-1.5,0.4-2.6,1.3-3.2
				C189.9,2.4,190.9,2.1,192.2,2.1z M196.2,13.9v30h-8.2v-30H196.2z"/>
			<path fill="#FFFFFF" d="M218.6,37.9c0.9,0,1.8-0.1,2.6-0.3c0.9-0.2,1.7-0.4,2.5-0.7v6.1c-0.9,0.4-2,0.7-3.3,1
				c-1.3,0.3-2.7,0.4-4.3,0.4c-1.8,0-3.4-0.3-4.8-0.9c-1.4-0.6-2.5-1.6-3.4-3c-0.8-1.4-1.2-3.5-1.2-6V20h-3.9v-3.5l4.5-2.7l2.4-6.3
				h5.2v6.4h8.4V20H215v14.5c0,1.1,0.3,2,1,2.6C216.6,37.6,217.5,37.9,218.6,37.9z"/>
			<path fill="#FFFFFF" d="M243.3,13.3c2.8,0,5.2,0.5,7.2,1.6c2,1.1,3.6,2.6,4.6,4.6c1.1,2,1.6,4.5,1.6,7.4v4h-19.4
				c0.1,2.3,0.8,4.1,2.1,5.4c1.3,1.3,3.1,2,5.4,2c1.9,0,3.7-0.2,5.3-0.6c1.6-0.4,3.2-1,4.9-1.8v6.3c-1.5,0.7-3,1.3-4.7,1.6
				c-1.6,0.3-3.6,0.5-5.9,0.5c-3,0-5.7-0.6-8-1.7c-2.3-1.1-4.1-2.8-5.5-5.1c-1.3-2.3-2-5.1-2-8.6c0-3.5,0.6-6.4,1.8-8.8
				c1.2-2.3,2.9-4.1,5-5.3C238,13.9,240.5,13.3,243.3,13.3z M243.3,19.2c-1.6,0-2.9,0.5-4,1.5c-1,1-1.7,2.6-1.8,4.8h11.5
				c0-1.2-0.2-2.3-0.7-3.2c-0.4-0.9-1-1.7-1.9-2.3C245.7,19.4,244.6,19.2,243.3,19.2z"/>
			<path fill="#FFFFFF" d="M6.1,101.9V62.6h8.3v39.3H6.1z"/>
			<path fill="#FFFFFF" d="M60.2,101.9H49.6L32.5,72.2h-0.2c0.1,1.2,0.1,2.5,0.2,3.7c0.1,1.3,0.1,2.5,0.2,3.7
				c0.1,1.2,0.1,2.5,0.2,3.7v18.5h-7.4V62.6h10.5l17.1,29.4h0.2c0-1.2-0.1-2.4-0.1-3.6c-0.1-1.2-0.1-2.4-0.1-3.6
				c0-1.2-0.1-2.4-0.1-3.6V62.6h7.5V101.9z"/>
			<path fill="#FFFFFF" d="M79.4,101.9h-8.2V62.6h22.5v6.8H79.4v10.1h13.3v6.8H79.4V101.9z"/>
			<path fill="#FFFFFF" d="M138.1,82.2c0,3-0.4,5.8-1.1,8.3c-0.8,2.5-1.9,4.6-3.4,6.4c-1.5,1.8-3.5,3.2-5.8,4.1
				c-2.3,1-5.1,1.4-8.3,1.4c-3.2,0-6-0.5-8.3-1.4c-2.3-1-4.3-2.3-5.8-4.1c-1.5-1.8-2.7-3.9-3.4-6.4c-0.8-2.5-1.1-5.3-1.1-8.3
				c0-4.1,0.7-7.6,2-10.6c1.3-3,3.4-5.4,6.2-7c2.8-1.7,6.3-2.5,10.6-2.5c4.3,0,7.8,0.8,10.5,2.5c2.7,1.7,4.8,4,6.1,7
				C137.4,74.6,138.1,78.1,138.1,82.2z M109.4,82.2c0,2.7,0.3,5.1,1,7.1c0.7,2,1.8,3.5,3.2,4.6c1.5,1.1,3.4,1.6,5.7,1.6
				c2.4,0,4.3-0.5,5.7-1.6c1.5-1.1,2.5-2.6,3.2-4.6c0.7-2,1-4.3,1-7.1c0-4.1-0.8-7.4-2.3-9.7c-1.5-2.4-4.1-3.5-7.6-3.5
				c-2.3,0-4.3,0.5-5.7,1.6c-1.5,1.1-2.6,2.6-3.2,4.6C109.8,77.1,109.4,79.5,109.4,82.2z"/>
			<path fill="#FFFFFF" d="M158.8,62.6c3.6,0,6.5,0.4,8.8,1.3c2.3,0.9,4,2.2,5.2,3.9c1.1,1.7,1.7,3.9,1.7,6.6c0,1.8-0.3,3.4-1,4.7
				c-0.7,1.3-1.6,2.5-2.7,3.4c-1.1,0.9-2.3,1.7-3.6,2.3l11.5,17.1h-9.2l-9.4-15.1h-4.4v15.1h-8.3V62.6H158.8z M158.2,69.5h-2.5v10.6
				h2.7c2.8,0,4.7-0.5,5.9-1.4c1.2-0.9,1.8-2.3,1.8-4.1c0-1.9-0.6-3.2-1.9-4C162.9,69.9,160.9,69.5,158.2,69.5z"/>
			<path fill="#FFFFFF" d="M201.4,101.9l-9.5-30.8h-0.2c0,0.7,0.1,1.8,0.2,3.3c0.1,1.5,0.2,3,0.2,4.7c0.1,1.7,0.1,3.2,0.1,4.5v18.3
				h-7.4V62.6h11.3l9.3,30h0.2l9.9-30h11.3v39.3H219V83.3c0-1.2,0-2.7,0.1-4.3c0-1.6,0.1-3.1,0.2-4.6c0.1-1.5,0.1-2.6,0.2-3.3h-0.2
				L209,101.9H201.4z"/>
			<path fill="#FFFFFF" d="M261.7,101.9l-2.8-9.3h-14.3l-2.8,9.3h-9l13.9-39.4h10.2l13.9,39.4H261.7z M256.9,85.6l-2.8-9.1
				c-0.2-0.6-0.4-1.4-0.7-2.3c-0.3-1-0.6-1.9-0.9-2.9c-0.3-1-0.5-1.9-0.7-2.6c-0.2,0.7-0.4,1.6-0.7,2.7c-0.3,1.1-0.6,2.1-0.9,3.1
				c-0.3,1-0.5,1.7-0.6,2.1l-2.8,9.1H256.9z"/>
			<path fill="#FFFFFF" d="M291.9,101.9h-8.3V69.6h-10.7v-6.9h29.6v6.9h-10.7V101.9z"/>
			<path fill="#FFFFFF" d="M309.7,101.9V62.6h8.3v39.3H309.7z"/>
			<path fill="#FFFFFF" d="M364.7,82.2c0,3-0.4,5.8-1.1,8.3c-0.8,2.5-1.9,4.6-3.4,6.4c-1.5,1.8-3.5,3.2-5.8,4.1
				c-2.3,1-5.1,1.4-8.3,1.4c-3.2,0-6-0.5-8.3-1.4c-2.3-1-4.3-2.3-5.8-4.1c-1.5-1.8-2.7-3.9-3.4-6.4c-0.8-2.5-1.1-5.3-1.1-8.3
				c0-4.1,0.7-7.6,2-10.6c1.3-3,3.4-5.4,6.2-7c2.8-1.7,6.3-2.5,10.6-2.5c4.3,0,7.8,0.8,10.5,2.5c2.7,1.7,4.8,4,6.1,7
				C364,74.6,364.7,78.1,364.7,82.2z M336,82.2c0,2.7,0.3,5.1,1,7.1c0.7,2,1.8,3.5,3.2,4.6c1.5,1.1,3.4,1.6,5.7,1.6
				c2.4,0,4.3-0.5,5.7-1.6c1.5-1.1,2.5-2.6,3.2-4.6c0.7-2,1-4.3,1-7.1c0-4.1-0.8-7.4-2.3-9.7c-1.5-2.4-4.1-3.5-7.6-3.5
				c-2.3,0-4.3,0.5-5.7,1.6c-1.5,1.1-2.6,2.6-3.2,4.6C336.3,77.1,336,79.5,336,82.2z"/>
			<path fill="#FFFFFF" d="M408.7,101.9h-10.6l-17.1-29.7h-0.2c0.1,1.2,0.1,2.5,0.2,3.7c0.1,1.3,0.1,2.5,0.2,3.7
				c0.1,1.2,0.1,2.5,0.2,3.7v18.5h-7.4V62.6h10.5l17.1,29.4h0.2c0-1.2-0.1-2.4-0.1-3.6c-0.1-1.2-0.1-2.4-0.1-3.6
				c0-1.2-0.1-2.4-0.1-3.6V62.6h7.5V101.9z"/>
		</g>
	</g>
	<g>
		<g>
			<path fill="#FFFFFF" d="M2.6,128.8c-0.1-0.2-0.2-0.4-0.4-0.6s-0.3-0.5-0.5-0.7c-0.2-0.2-0.3-0.4-0.5-0.5c0.7-0.3,1.5-0.7,2.3-1.1
				s1.5-1,2.3-1.5c0.7-0.6,1.4-1.1,2-1.7c0.6-0.6,1-1.1,1.3-1.6l2,0.3c0.4,0.5,0.9,1,1.5,1.6c0.6,0.5,1.3,1.1,2,1.5
				c0.7,0.5,1.4,0.9,2.2,1.3c0.7,0.4,1.5,0.7,2.1,1c-0.2,0.1-0.4,0.3-0.6,0.6c-0.2,0.2-0.4,0.5-0.6,0.7c-0.2,0.3-0.3,0.5-0.4,0.6
				c-0.5-0.2-1-0.4-1.4-0.7c-0.5-0.3-1-0.6-1.5-0.9v1.5H5.8v-1.6c-0.6,0.4-1.1,0.7-1.6,1C3.6,128.4,3.1,128.6,2.6,128.8z
				 M15.6,137.9c-0.1-0.3-0.3-0.6-0.6-0.9c-0.2-0.3-0.5-0.7-0.8-1c-0.6,0.1-1.2,0.2-1.9,0.3c-0.7,0.1-1.5,0.2-2.3,0.3
				c-0.8,0.1-1.6,0.2-2.4,0.3c-0.8,0.1-1.5,0.2-2.2,0.2s-1.3,0.1-1.7,0.2l-0.4-2.1c0.3,0,0.6,0,1,0c0.4,0,0.8,0,1.3-0.1
				c0.3-0.4,0.6-0.9,0.9-1.5s0.6-1.1,0.8-1.6H2.8v-1.9h14.7v1.9h-4.3c0.3,0.3,0.7,0.6,1.1,1c0.4,0.4,0.8,0.8,1.2,1.2
				c0.4,0.4,0.8,0.9,1.1,1.3c0.3,0.4,0.6,0.8,0.8,1.1c-0.2,0.1-0.4,0.2-0.6,0.4c-0.2,0.2-0.5,0.4-0.7,0.5
				C15.9,137.6,15.7,137.7,15.6,137.9z M6.3,126.7h7.6c-0.7-0.5-1.4-1-2.1-1.6c-0.7-0.6-1.2-1.2-1.7-1.8c-0.4,0.5-1,1.1-1.6,1.7
				C7.8,125.6,7.1,126.2,6.3,126.7z M8.2,134.8c0.8-0.1,1.6-0.2,2.4-0.2c0.8-0.1,1.5-0.2,2.2-0.3c-0.5-0.5-1-0.9-1.4-1.2l1.4-1.2
				H9.7c-0.2,0.5-0.4,1-0.7,1.5C8.7,133.8,8.5,134.3,8.2,134.8z"/>
			<path fill="#FFFFFF" d="M29.8,137.8c-0.1-0.1-0.2-0.2-0.4-0.3c-0.2-0.1-0.4-0.3-0.6-0.4s-0.4-0.2-0.5-0.3
				c0.6-0.3,1.1-0.7,1.7-1.2c0.6-0.5,1.1-1.1,1.6-1.7c0.5-0.6,0.8-1.2,1.1-1.7h-0.8c-0.4,0.6-0.8,1.3-1.4,1.9
				c-0.6,0.6-1.2,1.2-1.9,1.7c-0.7,0.5-1.4,0.9-2.1,1.2c-0.1-0.1-0.2-0.2-0.3-0.4c-0.2-0.2-0.3-0.3-0.5-0.5
				c-0.2-0.2-0.3-0.3-0.4-0.3c0.5-0.2,1.1-0.5,1.7-0.9c0.6-0.4,1.2-0.8,1.7-1.3c0.5-0.5,1-1,1.3-1.5h-0.8c-0.5,0.5-0.9,1-1.5,1.4
				c-0.5,0.4-1,0.8-1.6,1.1c-0.1-0.2-0.3-0.4-0.6-0.6s-0.5-0.4-0.7-0.6c0.5-0.2,1-0.6,1.5-0.9c0.5-0.4,1-0.8,1.4-1.3
				c0.4-0.5,0.8-0.9,1-1.4H27v1.8c-0.3,0.2-0.7,0.3-1.2,0.5c-0.5,0.2-1,0.4-1.6,0.6s-1.1,0.4-1.6,0.6c-0.5,0.2-1,0.3-1.4,0.4l-0.5-2
				c0.3-0.1,0.7-0.1,1-0.2c0.4-0.1,0.8-0.2,1.2-0.3v-4.5h-2V125h2v-3.5h2.1v3.5h1.9v1.9h-1.9v3.8c0.3-0.1,0.7-0.3,1-0.4
				c0.3-0.1,0.6-0.2,0.8-0.4h-0.3v-1.5h10.8v1.5h-6.7c-0.1,0.1-0.1,0.2-0.2,0.4c-0.1,0.1-0.2,0.3-0.2,0.4H37c0,0.3,0,0.8,0,1.3
				c0,0.5-0.1,1-0.1,1.5c-0.1,0.5-0.1,1-0.2,1.5s-0.2,0.9-0.3,1.2c-0.2,0.6-0.5,1-0.8,1.2c-0.4,0.2-0.9,0.3-1.5,0.3h-1.3
				c0-0.3-0.1-0.6-0.2-1s-0.2-0.7-0.3-0.9c-0.4,0.4-0.8,0.8-1.2,1.1C30.7,137.3,30.2,137.6,29.8,137.8z M28,127.7v-6h7.8v6H28z
				 M30,124h3.9v-0.8H30V124z M30,126.2h3.9v-0.9H30V126.2z M32.3,135.8h1.3c0.3,0,0.5,0,0.6-0.1c0.1-0.1,0.3-0.2,0.4-0.5
				c0.1-0.2,0.2-0.5,0.2-0.9c0.1-0.4,0.1-0.7,0.2-1.1c0-0.4,0.1-0.7,0.1-1h-0.5c-0.2,0.6-0.6,1.2-0.9,1.9
				C33.2,134.6,32.7,135.2,32.3,135.8z"/>
			<path fill="#FFFFFF" d="M41.3,129.8c-0.1-0.1-0.3-0.1-0.5-0.2s-0.4-0.1-0.7-0.2s-0.4-0.1-0.5-0.1c0.1-0.3,0.2-0.6,0.3-1
				c0.1-0.4,0.2-0.9,0.2-1.3c0.1-0.5,0.1-0.9,0.2-1.3c0-0.4,0.1-0.8,0.1-1.1l1.8,0.2c0,0.4,0,0.9-0.1,1.4c-0.1,0.5-0.1,1-0.2,1.5
				c-0.1,0.5-0.2,0.9-0.3,1.3C41.4,129.3,41.3,129.6,41.3,129.8z M42.5,137.7v-16.4h2.1v3.1l0.9-0.6c0.2,0.3,0.5,0.6,0.7,0.9
				s0.5,0.7,0.7,1v-1h2.9V124h-3.9v-1.5h3.9v-1.3h2.1v1.3h4.1v1.5h-4.1v0.7h3v1.4h-3v0.7h4.6v1.5H45.4v-1.5h0.1
				c-0.1-0.2-0.3-0.5-0.4-0.7c-0.2-0.3-0.3-0.5-0.5-0.7v12.4H42.5z M46,126.8h3.8V126H47L46,126.8z M51.7,137.7c0-0.3-0.1-0.6-0.1-1
				c-0.1-0.4-0.1-0.7-0.2-0.9h1.1c0.2,0,0.4,0,0.5-0.1s0.1-0.2,0.1-0.5v-0.5h-4.1v2.9h-2.1v-8.8h8.3v7c0,0.6-0.2,1.1-0.5,1.4
				c-0.4,0.3-0.9,0.4-1.7,0.4H51.7z M48.9,131.1H53v-0.7h-4.1V131.1z M48.9,133.3H53v-0.8h-4.1V133.3z"/>
			<path fill="#FFFFFF" d="M59,127.6v-1.7h3.4v-1.2h-2.6V123h2.6v-1.7h2v1.7h2.5v1.7h-2.5v1.2h3.2v1.7H59z M62.3,137.6v-3.1h-2.8
				v-1.7h2.8v-1.2h-3.1v-1.7h1.7c-0.1-0.3-0.2-0.6-0.4-0.9c-0.1-0.3-0.2-0.5-0.4-0.7l1.7-0.5c0.1,0.3,0.3,0.6,0.4,1
				c0.2,0.4,0.3,0.8,0.4,1.1h1.1c0.1-0.3,0.3-0.7,0.4-1.1s0.2-0.7,0.3-1l1.8,0.4c-0.1,0.3-0.2,0.5-0.3,0.8c-0.1,0.3-0.2,0.6-0.3,0.9
				h1.5v1.7h-2.9v1.2H67v1.7h-2.7v3.1H62.3z M67.8,137.6v-15.9h6.9v3.5c0,0.8-0.2,1.3-0.5,1.7c-0.4,0.4-0.9,0.5-1.6,0.5h-1.3
				c0-0.3-0.1-0.7-0.2-1c-0.1-0.4-0.2-0.7-0.3-0.9H72c0.2,0,0.4,0,0.5-0.1c0.1-0.1,0.2-0.2,0.2-0.5v-1.3h-2.9v4.4h5.3
				c0,1.1-0.2,2.2-0.5,3.2c-0.3,1-0.7,2-1.1,2.9c0.3,0.4,0.7,0.7,1.1,1c0.4,0.3,0.8,0.6,1.3,0.9c-0.2,0.2-0.4,0.4-0.6,0.7
				c-0.2,0.3-0.4,0.6-0.6,0.9c-0.8-0.5-1.6-1.1-2.2-1.9c-0.3,0.3-0.5,0.6-0.8,0.9s-0.6,0.6-0.9,0.8c-0.2-0.3-0.5-0.6-0.9-0.9v1.1
				H67.8z M69.8,135.6c0.3-0.2,0.5-0.5,0.8-0.7c0.2-0.3,0.5-0.5,0.7-0.8c-0.3-0.6-0.6-1.1-0.8-1.8c-0.2-0.6-0.4-1.3-0.5-2l1.7-0.3
				c0.2,0.8,0.4,1.6,0.7,2.2c0.4-0.8,0.6-1.6,0.7-2.5h-3.2V135.6z"/>
		</g>
	</g>
</g>
</svg>
